<mxfile host="65bd71144e" modified="2021-01-10T15:56:38.466Z" agent="5.0 (Windows NT 10.0; Win64; x64) AppleWebKit/537.36 (KHTML, like Gecko) Code/1.52.1 Chrome/83.0.4103.122 Electron/9.3.5 Safari/537.36" etag="O1dBZiE96o_ZS1g9BRnp" version="13.10.0" type="embed" pages="2">
    <diagram id="wFE0QG_FPsp0jaGvCLVb" name="Sys-Requirements">
        <mxGraphModel dx="1897" dy="1626" grid="1" gridSize="10" guides="1" tooltips="1" connect="1" arrows="1" fold="1" page="1" pageScale="1" pageWidth="850" pageHeight="1100" math="0" shadow="0">
            <root>
                <mxCell id="0"/>
                <mxCell id="1" parent="0"/>
                <mxCell id="CzBbysrcIN4NxOCek7Nh-9" style="edgeStyle=orthogonalEdgeStyle;rounded=0;orthogonalLoop=1;jettySize=auto;html=1;entryX=0.454;entryY=0.083;entryDx=0;entryDy=0;entryPerimeter=0;" parent="1" source="c3UbohfWcsbxTegdfn7A-3" target="CzBbysrcIN4NxOCek7Nh-2" edge="1">
                    <mxGeometry relative="1" as="geometry"/>
                </mxCell>
                <mxCell id="c3UbohfWcsbxTegdfn7A-3" value="&lt;div&gt;&lt;b&gt;&lt;font style=&quot;font-size: 18px&quot;&gt;&lt;br&gt;&lt;/font&gt;&lt;/b&gt;&lt;/div&gt;&lt;div&gt;&lt;b&gt;&lt;font style=&quot;font-size: 18px&quot;&gt;Final Processing Form&lt;/font&gt;&lt;/b&gt;&lt;/div&gt;&lt;div&gt;&lt;br&gt;&lt;/div&gt;" style="rounded=0;whiteSpace=wrap;html=1;align=center;" parent="1" vertex="1">
                    <mxGeometry x="170" y="-0.8700000000000045" width="250" height="60" as="geometry"/>
                </mxCell>
                <mxCell id="c3UbohfWcsbxTegdfn7A-4" value="&lt;div&gt;&lt;b&gt;&lt;font style=&quot;font-size: 18px&quot;&gt;Form Working&lt;/font&gt;&lt;/b&gt;&lt;/div&gt;&lt;div style=&quot;text-align: left&quot;&gt;&lt;ol&gt;&lt;li&gt;&amp;nbsp;* mark against the variable denotes the fact that the value is compulsory.&lt;/li&gt;&lt;li&gt;But since Visa Details cannot be entered at the same time we receive the the candidate Entry, so only when we receive the the Visa Delivery can we enter the Visa Processing Details. So a variable should be declared that can keep the forms on hold and all of these forms needs to be shown in a new page.&lt;/li&gt;&lt;li&gt;A search bar should be provided that can search the database based on the Visa Number, Name or the Mobile Number of the individual&lt;/li&gt;&lt;li&gt;Also, the feature of removing any entry from the system should also be added .&lt;/li&gt;&lt;li&gt;Feature related to updating any entry of an should be added to the system.&lt;/li&gt;&lt;/ol&gt;&lt;/div&gt;" style="rounded=0;whiteSpace=wrap;html=1;align=center;" parent="1" vertex="1">
                    <mxGeometry x="-100" y="-420" width="310" height="330" as="geometry"/>
                </mxCell>
                <mxCell id="c3UbohfWcsbxTegdfn7A-9" value="&lt;div&gt;&lt;span style=&quot;font-size: 14px&quot;&gt;&lt;b&gt;Visa Processing Details&lt;/b&gt;&lt;/span&gt;&lt;/div&gt;&lt;div&gt;&lt;ul&gt;&lt;li style=&quot;text-align: left&quot;&gt;&lt;span style=&quot;font-size: 14px&quot;&gt;&lt;strike&gt;Visa Number*&lt;/strike&gt;&lt;/span&gt;&lt;/li&gt;&lt;li style=&quot;text-align: left&quot;&gt;&lt;span style=&quot;font-size: 14px&quot;&gt;&lt;strike&gt;Visa Date&lt;/strike&gt;*&lt;/span&gt;&lt;/li&gt;&lt;li style=&quot;text-align: left&quot;&gt;&lt;span style=&quot;font-size: 14px&quot;&gt;&lt;strike&gt;Passport/ Visa Submission Date&lt;/strike&gt;&lt;/span&gt;&lt;/li&gt;&lt;li style=&quot;text-align: left&quot;&gt;&lt;span style=&quot;font-size: 14px&quot;&gt;&lt;strike&gt;Passport/ Visa Delivery Date&lt;/strike&gt;&lt;/span&gt;&lt;/li&gt;&lt;li style=&quot;text-align: left&quot;&gt;&lt;span style=&quot;font-size: 14px&quot;&gt;&lt;strike&gt;Passport Copy&lt;/strike&gt;&lt;/span&gt;&lt;/li&gt;&lt;li style=&quot;text-align: left&quot;&gt;&lt;span style=&quot;font-size: 14px&quot;&gt;&lt;strike&gt;Visa Copy&lt;/strike&gt;&lt;/span&gt;&lt;/li&gt;&lt;li style=&quot;text-align: left&quot;&gt;&lt;span style=&quot;font-size: 14px&quot;&gt;&lt;strike&gt;Remarks&lt;/strike&gt;&lt;/span&gt;&lt;/li&gt;&lt;li style=&quot;text-align: left&quot;&gt;&lt;span style=&quot;font-size: 14px&quot;&gt;Process Completion Button&lt;/span&gt;&lt;/li&gt;&lt;li style=&quot;text-align: left&quot;&gt;&lt;br&gt;&lt;/li&gt;&lt;/ul&gt;&lt;/div&gt;" style="whiteSpace=wrap;html=1;align=center;" parent="1" vertex="1">
                    <mxGeometry x="420" y="310" width="270" height="260" as="geometry"/>
                </mxCell>
                <mxCell id="c3UbohfWcsbxTegdfn7A-10" value="&lt;div&gt;&lt;span style=&quot;font-size: 14px&quot;&gt;&lt;b&gt;&lt;br&gt;&lt;/b&gt;&lt;/span&gt;&lt;/div&gt;&lt;div&gt;&lt;span style=&quot;font-size: 14px&quot;&gt;&lt;b&gt;Candidate Info&amp;nbsp;&lt;/b&gt;&lt;/span&gt;&lt;/div&gt;&lt;div&gt;&lt;ul&gt;&lt;li style=&quot;text-align: left&quot;&gt;&lt;span style=&quot;font-size: 14px&quot;&gt;&lt;strike&gt;Name &lt;/strike&gt;*&lt;/span&gt;&lt;/li&gt;&lt;li style=&quot;text-align: left&quot;&gt;&lt;span style=&quot;font-size: 14px&quot;&gt;&lt;strike&gt;Mobile Number *&lt;/strike&gt;&lt;/span&gt;&lt;/li&gt;&lt;li style=&quot;text-align: left&quot;&gt;&lt;span style=&quot;font-size: 14px&quot;&gt;&lt;strike&gt;Address&lt;/strike&gt;*&lt;/span&gt;&lt;/li&gt;&lt;li style=&quot;text-align: left&quot;&gt;&lt;span style=&quot;font-size: 14px&quot;&gt;&lt;strike&gt;Gender&lt;/strike&gt;*&lt;/span&gt;&lt;/li&gt;&lt;li style=&quot;text-align: left&quot;&gt;&lt;span style=&quot;font-size: 14px&quot;&gt;&lt;strike&gt;Date of Birth*&amp;nbsp;&lt;/strike&gt;&lt;/span&gt;&lt;/li&gt;&lt;li style=&quot;text-align: left&quot;&gt;&lt;span style=&quot;font-size: 14px&quot;&gt;Address Proof ?&lt;/span&gt;&lt;/li&gt;&lt;li style=&quot;text-align: left&quot;&gt;&lt;span style=&quot;font-size: 14px&quot;&gt;&lt;strike&gt;Unique Identification Value&lt;/strike&gt;&lt;/span&gt;&lt;/li&gt;&lt;li style=&quot;text-align: left&quot;&gt;&lt;span style=&quot;font-size: 14px&quot;&gt;&lt;strike&gt;Application Date&lt;/strike&gt;&lt;/span&gt;&lt;/li&gt;&lt;li style=&quot;text-align: left&quot;&gt;&lt;span style=&quot;font-size: 14px&quot;&gt;&lt;strike&gt;Position&lt;/strike&gt;&lt;/span&gt;&lt;/li&gt;&lt;li style=&quot;text-align: left&quot;&gt;&lt;span style=&quot;font-size: 14px&quot;&gt;&lt;strike&gt;Passport Number&lt;/strike&gt;&lt;/span&gt;&lt;/li&gt;&lt;li style=&quot;text-align: left&quot;&gt;&lt;span style=&quot;font-size: 14px&quot;&gt;&lt;strike&gt;Date of&amp;nbsp; Issue&lt;/strike&gt;&lt;/span&gt;&lt;/li&gt;&lt;li style=&quot;text-align: left&quot;&gt;&lt;span style=&quot;font-size: 14px&quot;&gt;&lt;strike&gt;Date of Expiry&lt;/strike&gt;&lt;/span&gt;&lt;/li&gt;&lt;li style=&quot;text-align: left&quot;&gt;&lt;span style=&quot;font-size: 14px&quot;&gt;&lt;strike&gt;Place of Issue&lt;/strike&gt;&lt;/span&gt;&lt;/li&gt;&lt;/ul&gt;&lt;/div&gt;" style="whiteSpace=wrap;html=1;align=center;" parent="1" vertex="1">
                    <mxGeometry x="-57" y="315" width="240" height="295" as="geometry"/>
                </mxCell>
                <mxCell id="c3UbohfWcsbxTegdfn7A-13" value="&lt;div&gt;&lt;b&gt;&lt;span style=&quot;font-size: 14px ; text-align: left&quot;&gt;Sponsor Details&lt;/span&gt;&lt;br&gt;&lt;/b&gt;&lt;/div&gt;&lt;div&gt;&lt;ul&gt;&lt;li style=&quot;text-align: left&quot;&gt;&lt;strike&gt;&lt;span style=&quot;font-size: 14px&quot;&gt;Sponsor Name*&lt;/span&gt;&lt;br&gt;&lt;/strike&gt;&lt;/li&gt;&lt;li style=&quot;text-align: left&quot;&gt;&lt;span style=&quot;font-size: 14px&quot;&gt;&lt;strike&gt;Contact Number*&lt;/strike&gt;&lt;/span&gt;&lt;/li&gt;&lt;li style=&quot;text-align: left&quot;&gt;&lt;strike&gt;&lt;span style=&quot;font-size: 14px&quot;&gt;Sponsor Address&lt;/span&gt;&lt;span&gt;*&lt;/span&gt;&lt;br&gt;&lt;/strike&gt;&lt;/li&gt;&lt;li style=&quot;text-align: left&quot;&gt;&lt;strike&gt;&lt;span style=&quot;font-size: 14px&quot;&gt;Country&lt;/span&gt;&lt;span&gt;*&lt;/span&gt;&lt;br&gt;&lt;/strike&gt;&lt;/li&gt;&lt;li&gt;&lt;/li&gt;&lt;/ul&gt;&lt;/div&gt;" style="whiteSpace=wrap;html=1;align=center;" parent="1" vertex="1">
                    <mxGeometry x="215" y="310" width="170" height="150" as="geometry"/>
                </mxCell>
                <mxCell id="c3UbohfWcsbxTegdfn7A-21" value="&lt;strike&gt;Acceptance Letter&lt;/strike&gt;" style="rounded=0;whiteSpace=wrap;html=1;" parent="1" vertex="1">
                    <mxGeometry x="-180" y="260" width="195" height="30" as="geometry"/>
                </mxCell>
                <mxCell id="c3UbohfWcsbxTegdfn7A-22" value="&lt;strike&gt;Speech Proof (Video File)&lt;/strike&gt;" style="rounded=0;whiteSpace=wrap;html=1;" parent="1" vertex="1">
                    <mxGeometry x="540" y="260" width="195" height="30" as="geometry"/>
                </mxCell>
                <mxCell id="c3UbohfWcsbxTegdfn7A-41" value="" style="group" parent="1" vertex="1" connectable="0">
                    <mxGeometry x="310" y="-590" width="930" height="600" as="geometry"/>
                </mxCell>
                <mxCell id="c3UbohfWcsbxTegdfn7A-5" value="" style="rounded=0;whiteSpace=wrap;html=1;align=center;" parent="c3UbohfWcsbxTegdfn7A-41" vertex="1">
                    <mxGeometry width="930" height="340" as="geometry"/>
                </mxCell>
                <mxCell id="c3UbohfWcsbxTegdfn7A-36" value="&lt;b&gt;DELETE&lt;br&gt;&lt;ul&gt;&lt;li style=&quot;text-align: left&quot;&gt;&lt;b&gt;When an entry in the database needs to be deleted, which can be during the visa entry stage or even at a later point in time.&lt;/b&gt;&lt;/li&gt;&lt;/ul&gt;&lt;/b&gt;" style="rounded=0;whiteSpace=wrap;html=1;" parent="c3UbohfWcsbxTegdfn7A-41" vertex="1">
                    <mxGeometry x="690" y="50" width="210" height="270" as="geometry"/>
                </mxCell>
                <mxCell id="c3UbohfWcsbxTegdfn7A-37" value="CREATE&lt;br&gt;&lt;ul&gt;&lt;li style=&quot;text-align: left&quot;&gt;&lt;span style=&quot;font-weight: normal&quot;&gt;Every new form should denote an individual consisting of every features denoted below as an entry.&lt;/span&gt;&lt;/li&gt;&lt;li style=&quot;text-align: left&quot;&gt;&lt;span style=&quot;font-weight: 400&quot;&gt;Compulsory Data should be noted down and implemented in the form itself than the DB.&lt;/span&gt;&lt;/li&gt;&lt;li style=&quot;text-align: left&quot;&gt;&lt;span style=&quot;font-weight: normal&quot;&gt;Creating the Database should also consider about the type of data such as images, videos, long integers, etc&lt;/span&gt;&lt;/li&gt;&lt;/ul&gt;" style="rounded=0;whiteSpace=wrap;html=1;fontStyle=1" parent="c3UbohfWcsbxTegdfn7A-41" vertex="1">
                    <mxGeometry x="30" y="50" width="210" height="270" as="geometry"/>
                </mxCell>
                <mxCell id="c3UbohfWcsbxTegdfn7A-38" value="&lt;b&gt;READ&lt;/b&gt;&lt;br&gt;&lt;ul&gt;&lt;li style=&quot;text-align: left&quot;&gt;Reading files can denote three features in this system. One is when the already entered details needs update&lt;/li&gt;&lt;li style=&quot;text-align: left&quot;&gt;Second is during searching. Searching can be based on the Visa Number, name of the applicant or even the position&amp;nbsp; for which he/ she applied.&amp;nbsp;&lt;/li&gt;&lt;li style=&quot;text-align: left&quot;&gt;Third is when the application is partially filled, and additional data is to be added(during the addition of visa details)&lt;/li&gt;&lt;/ul&gt;" style="rounded=0;whiteSpace=wrap;html=1;" parent="c3UbohfWcsbxTegdfn7A-41" vertex="1">
                    <mxGeometry x="250" y="50" width="210" height="270" as="geometry"/>
                </mxCell>
                <mxCell id="c3UbohfWcsbxTegdfn7A-39" value="&lt;b&gt;UPDATE&lt;br&gt;&lt;ul&gt;&lt;li style=&quot;text-align: left&quot;&gt;Update is required when data entered in the form for a particular individual needs to be changed. This can be during the visa entry stage or even at a later stage.&lt;/li&gt;&lt;/ul&gt;&lt;/b&gt;" style="rounded=0;whiteSpace=wrap;html=1;" parent="c3UbohfWcsbxTegdfn7A-41" vertex="1">
                    <mxGeometry x="470" y="50" width="210" height="270" as="geometry"/>
                </mxCell>
                <mxCell id="c3UbohfWcsbxTegdfn7A-42" value="&lt;font style=&quot;font-size: 18px&quot;&gt;&lt;b&gt;DATABASE FEATURE REQUIREMENT&lt;/b&gt;&lt;/font&gt;" style="text;html=1;strokeColor=none;fillColor=none;align=center;verticalAlign=middle;whiteSpace=wrap;rounded=0;" parent="c3UbohfWcsbxTegdfn7A-41" vertex="1">
                    <mxGeometry x="90" width="690" height="50" as="geometry"/>
                </mxCell>
                <mxCell id="c3UbohfWcsbxTegdfn7A-56" value="" style="html=1;shadow=0;dashed=0;align=center;verticalAlign=middle;shape=mxgraph.arrows2.jumpInArrow;dy=5;dx=22.51;arrowHead=23.7;rotation=-45;" parent="c3UbohfWcsbxTegdfn7A-41" vertex="1">
                    <mxGeometry x="-103.43" y="323.5" width="204.15" height="225.85" as="geometry"/>
                </mxCell>
                <mxCell id="c3UbohfWcsbxTegdfn7A-50" value="" style="html=1;shadow=0;dashed=0;align=center;verticalAlign=middle;shape=mxgraph.arrows2.jumpInArrow;dy=5;dx=22.51;arrowHead=23.7;rotation=-125;" parent="1" vertex="1">
                    <mxGeometry x="8.329999999999998" y="-60.870000000000005" width="172.13" height="60" as="geometry"/>
                </mxCell>
                <mxCell id="CzBbysrcIN4NxOCek7Nh-11" value="" style="edgeStyle=orthogonalEdgeStyle;rounded=0;orthogonalLoop=1;jettySize=auto;html=1;" parent="1" source="c3UbohfWcsbxTegdfn7A-58" target="CzBbysrcIN4NxOCek7Nh-10" edge="1">
                    <mxGeometry relative="1" as="geometry"/>
                </mxCell>
                <mxCell id="CzBbysrcIN4NxOCek7Nh-3" style="edgeStyle=orthogonalEdgeStyle;rounded=0;orthogonalLoop=1;jettySize=auto;html=1;" parent="1" source="CzBbysrcIN4NxOCek7Nh-2" target="c3UbohfWcsbxTegdfn7A-21" edge="1">
                    <mxGeometry relative="1" as="geometry"/>
                </mxCell>
                <mxCell id="CzBbysrcIN4NxOCek7Nh-4" style="edgeStyle=orthogonalEdgeStyle;rounded=0;orthogonalLoop=1;jettySize=auto;html=1;" parent="1" source="CzBbysrcIN4NxOCek7Nh-2" target="c3UbohfWcsbxTegdfn7A-10" edge="1">
                    <mxGeometry relative="1" as="geometry"/>
                </mxCell>
                <mxCell id="CzBbysrcIN4NxOCek7Nh-5" style="edgeStyle=orthogonalEdgeStyle;rounded=0;orthogonalLoop=1;jettySize=auto;html=1;entryX=0.5;entryY=0;entryDx=0;entryDy=0;" parent="1" source="CzBbysrcIN4NxOCek7Nh-2" target="c3UbohfWcsbxTegdfn7A-13" edge="1">
                    <mxGeometry relative="1" as="geometry"/>
                </mxCell>
                <mxCell id="CzBbysrcIN4NxOCek7Nh-6" style="edgeStyle=orthogonalEdgeStyle;rounded=0;orthogonalLoop=1;jettySize=auto;html=1;entryX=0.25;entryY=0;entryDx=0;entryDy=0;" parent="1" source="CzBbysrcIN4NxOCek7Nh-2" target="c3UbohfWcsbxTegdfn7A-9" edge="1">
                    <mxGeometry relative="1" as="geometry"/>
                </mxCell>
                <mxCell id="CzBbysrcIN4NxOCek7Nh-7" style="edgeStyle=orthogonalEdgeStyle;rounded=0;orthogonalLoop=1;jettySize=auto;html=1;" parent="1" source="CzBbysrcIN4NxOCek7Nh-2" target="c3UbohfWcsbxTegdfn7A-22" edge="1">
                    <mxGeometry relative="1" as="geometry">
                        <Array as="points">
                            <mxPoint x="300" y="300"/>
                            <mxPoint x="638" y="300"/>
                        </Array>
                    </mxGeometry>
                </mxCell>
                <mxCell id="CzBbysrcIN4NxOCek7Nh-2" value="Variable Details" style="rounded=0;whiteSpace=wrap;html=1;" parent="1" vertex="1">
                    <mxGeometry x="245" y="170" width="110" height="30" as="geometry"/>
                </mxCell>
                <mxCell id="CzBbysrcIN4NxOCek7Nh-13" value="" style="edgeStyle=orthogonalEdgeStyle;rounded=0;orthogonalLoop=1;jettySize=auto;html=1;" parent="1" source="CzBbysrcIN4NxOCek7Nh-10" target="CzBbysrcIN4NxOCek7Nh-12" edge="1">
                    <mxGeometry relative="1" as="geometry"/>
                </mxCell>
                <mxCell id="CzBbysrcIN4NxOCek7Nh-10" value="Variable Details" style="whiteSpace=wrap;html=1;rounded=0;" parent="1" vertex="1">
                    <mxGeometry x="1960" y="-60.870000000000005" width="190" height="60" as="geometry"/>
                </mxCell>
                <mxCell id="CzBbysrcIN4NxOCek7Nh-15" value="" style="edgeStyle=orthogonalEdgeStyle;rounded=0;orthogonalLoop=1;jettySize=auto;html=1;" parent="1" source="CzBbysrcIN4NxOCek7Nh-12" target="CzBbysrcIN4NxOCek7Nh-14" edge="1">
                    <mxGeometry relative="1" as="geometry"/>
                </mxCell>
                <mxCell id="CzBbysrcIN4NxOCek7Nh-12" value="&lt;div style=&quot;text-align: center&quot;&gt;&lt;span&gt;&lt;b&gt;&lt;font style=&quot;font-size: 14px&quot;&gt;List Details&lt;/font&gt;&lt;/b&gt;&lt;/span&gt;&lt;/div&gt;&lt;div style=&quot;text-align: center&quot;&gt;&lt;span&gt;&lt;b&gt;&lt;font style=&quot;font-size: 14px&quot;&gt;&lt;br&gt;&lt;/font&gt;&lt;/b&gt;&lt;/span&gt;&lt;/div&gt;&lt;ul&gt;&lt;li style=&quot;text-align: center&quot;&gt;Name of the Company*&lt;/li&gt;&lt;li&gt;Country*&lt;/li&gt;&lt;li&gt;List of category for recruitment&lt;br&gt;&lt;/li&gt;&lt;li&gt;&lt;span&gt;List Creation Date&lt;/span&gt;&lt;br&gt;&lt;/li&gt;&lt;/ul&gt;" style="whiteSpace=wrap;html=1;rounded=0;align=left;" parent="1" vertex="1">
                    <mxGeometry x="1955" y="50" width="200" height="200" as="geometry"/>
                </mxCell>
                <mxCell id="CzBbysrcIN4NxOCek7Nh-42" style="edgeStyle=orthogonalEdgeStyle;rounded=0;orthogonalLoop=1;jettySize=auto;html=1;entryX=0.605;entryY=0.122;entryDx=0;entryDy=0;entryPerimeter=0;" parent="1" source="CzBbysrcIN4NxOCek7Nh-14" target="CzBbysrcIN4NxOCek7Nh-43" edge="1">
                    <mxGeometry relative="1" as="geometry">
                        <mxPoint x="2652.6668294270835" y="570" as="targetPoint"/>
                    </mxGeometry>
                </mxCell>
                <mxCell id="CzBbysrcIN4NxOCek7Nh-14" value="&lt;font&gt;&lt;span style=&quot;font-size: 14px&quot;&gt;&lt;b&gt;Data to Enter inside List&lt;/b&gt;&lt;/span&gt;&lt;br&gt;&lt;br&gt;&lt;div style=&quot;text-align: left&quot;&gt;&lt;ul&gt;&lt;li&gt;&lt;font style=&quot;font-size: 12px&quot;&gt;&lt;div style=&quot;text-align: left&quot;&gt;Name of candidate*&lt;/div&gt;&lt;/font&gt;&lt;/li&gt;&lt;li&gt;&lt;div style=&quot;text-align: left&quot;&gt;Gender*&lt;/div&gt;&lt;/li&gt;&lt;li&gt;&lt;div style=&quot;text-align: left&quot;&gt;Category*&lt;/div&gt;&lt;/li&gt;&lt;li&gt;&lt;div style=&quot;text-align: left&quot;&gt;Bio data&lt;/div&gt;&lt;/li&gt;&lt;li&gt;&lt;div style=&quot;text-align: left&quot;&gt;Short Listed Variable*&lt;/div&gt;&lt;/li&gt;&lt;li&gt;&lt;div style=&quot;text-align: left&quot;&gt;Date&lt;/div&gt;&lt;/li&gt;&lt;li&gt;&lt;div style=&quot;text-align: left&quot;&gt;Mobile Number&lt;/div&gt;&lt;/li&gt;&lt;li&gt;&lt;div style=&quot;text-align: left&quot;&gt;Passport Number&lt;/div&gt;&lt;/li&gt;&lt;li&gt;&lt;div style=&quot;text-align: left&quot;&gt;After Interview Final List Variable&lt;/div&gt;&lt;/li&gt;&lt;/ul&gt;&lt;/div&gt;&lt;/font&gt;" style="whiteSpace=wrap;html=1;rounded=0;align=center;" parent="1" vertex="1">
                    <mxGeometry x="2200" y="38.75" width="240" height="222.5" as="geometry"/>
                </mxCell>
                <mxCell id="CzBbysrcIN4NxOCek7Nh-16" value="Form Working and Features.&lt;br&gt;&lt;ul&gt;&lt;li style=&quot;text-align: left&quot;&gt;For every recruitment opportunity of GT&amp;amp;T a new instance of the list has to be created.&amp;nbsp;&lt;/li&gt;&lt;li style=&quot;text-align: left&quot;&gt;Every list comes with different parameters that are mentioned on the side.&amp;nbsp;&amp;nbsp;&lt;/li&gt;&lt;li style=&quot;text-align: left&quot;&gt;List should have a easy way to enter details of individuals appearing for the recruitment drive.&lt;/li&gt;&lt;li style=&quot;text-align: left&quot;&gt;List should also give and easy way to remove individuals from the list&amp;nbsp;&lt;/li&gt;&lt;li style=&quot;text-align: left&quot;&gt;Another method should be provided that will allow the the recruiter to mark the candidate those are shortlisted for the interview.&lt;/li&gt;&lt;li style=&quot;text-align: left&quot;&gt;Candidates that are not selected should have their details stored in another table for when future opportunities arrive.&lt;/li&gt;&lt;li style=&quot;text-align: left&quot;&gt;Shortlisted Candidate will undergo interview procedure after which they will be selected. So another variable should be able to identify the selected candidate from the short listed ones.&lt;/li&gt;&lt;li style=&quot;text-align: left&quot;&gt;Again the short-listed candidate not selected should be added to the table for future opportunities.&lt;/li&gt;&lt;li style=&quot;text-align: left&quot;&gt;Selected candidates can have their data transferred to the Processing Form if needed) * not specifically required.&lt;/li&gt;&lt;li style=&quot;text-align: left&quot;&gt;A way to remove the List at the end once the work pertaining with the list is over&amp;nbsp;&lt;/li&gt;&lt;/ul&gt;" style="rounded=0;whiteSpace=wrap;html=1;" parent="1" vertex="1">
                    <mxGeometry x="1605" y="-680" width="360" height="400" as="geometry"/>
                </mxCell>
                <mxCell id="CzBbysrcIN4NxOCek7Nh-21" value="" style="html=1;shadow=0;dashed=0;align=center;verticalAlign=middle;shape=mxgraph.arrows2.jumpInArrow;dy=6.33;dx=50.33;arrowHead=28.5;rotation=-85;" parent="1" vertex="1">
                    <mxGeometry x="1720" y="-260" width="130" height="110" as="geometry"/>
                </mxCell>
                <mxCell id="CzBbysrcIN4NxOCek7Nh-23" value="" style="group" parent="1" vertex="1" connectable="0">
                    <mxGeometry x="2000" y="-690" width="930" height="600" as="geometry"/>
                </mxCell>
                <mxCell id="CzBbysrcIN4NxOCek7Nh-24" value="" style="rounded=0;whiteSpace=wrap;html=1;align=center;" parent="CzBbysrcIN4NxOCek7Nh-23" vertex="1">
                    <mxGeometry x="90" y="-20" width="930" height="340" as="geometry"/>
                </mxCell>
                <mxCell id="CzBbysrcIN4NxOCek7Nh-25" value="&lt;b&gt;DELETE&lt;br&gt;&lt;ul&gt;&lt;li style=&quot;text-align: left&quot;&gt;&lt;b&gt;Delete functionality should allow the delete the details of an individual from the recruitment list. A&lt;/b&gt;&lt;/li&gt;&lt;/ul&gt;&lt;/b&gt;" style="rounded=0;whiteSpace=wrap;html=1;" parent="CzBbysrcIN4NxOCek7Nh-23" vertex="1">
                    <mxGeometry x="780" y="30" width="210" height="270" as="geometry"/>
                </mxCell>
                <mxCell id="CzBbysrcIN4NxOCek7Nh-26" value="CREATE&lt;br&gt;&lt;ul&gt;&lt;li style=&quot;text-align: left&quot;&gt;&lt;span style=&quot;font-weight: normal&quot;&gt;The create functionality should allow the user to create a new recruitment list.&lt;/span&gt;&lt;/li&gt;&lt;li style=&quot;text-align: left&quot;&gt;&lt;span style=&quot;font-weight: normal&quot;&gt;Creating new entry of each candidate in the recruitment list.&lt;/span&gt;&lt;/li&gt;&lt;li style=&quot;text-align: left&quot;&gt;&lt;span style=&quot;font-weight: 400&quot;&gt;Compulsory Data should be noted down and implemented in the form itself than the DB.&lt;/span&gt;&lt;/li&gt;&lt;li style=&quot;text-align: left&quot;&gt;&lt;span style=&quot;font-weight: normal&quot;&gt;Creating the Database should also consider about the type of data such as images, videos, long integers, etc&lt;/span&gt;&lt;/li&gt;&lt;/ul&gt;" style="rounded=0;whiteSpace=wrap;html=1;fontStyle=1" parent="CzBbysrcIN4NxOCek7Nh-23" vertex="1">
                    <mxGeometry x="120" y="30" width="210" height="270" as="geometry"/>
                </mxCell>
                <mxCell id="CzBbysrcIN4NxOCek7Nh-27" value="&lt;b&gt;READ&lt;/b&gt;&lt;br&gt;&lt;ul&gt;&lt;li style=&quot;text-align: left&quot;&gt;Clicking on a particular recruitment drive should display all the details of all the candidates.&lt;/li&gt;&lt;/ul&gt;" style="rounded=0;whiteSpace=wrap;html=1;" parent="CzBbysrcIN4NxOCek7Nh-23" vertex="1">
                    <mxGeometry x="340" y="30" width="210" height="270" as="geometry"/>
                </mxCell>
                <mxCell id="CzBbysrcIN4NxOCek7Nh-28" value="&lt;b&gt;UPDATE&lt;br&gt;&lt;ul&gt;&lt;li style=&quot;text-align: left&quot;&gt;Update will be required on data on the recruitment list and the data of candidates in the list.&lt;/li&gt;&lt;/ul&gt;&lt;/b&gt;" style="rounded=0;whiteSpace=wrap;html=1;" parent="CzBbysrcIN4NxOCek7Nh-23" vertex="1">
                    <mxGeometry x="560" y="30" width="210" height="270" as="geometry"/>
                </mxCell>
                <mxCell id="CzBbysrcIN4NxOCek7Nh-29" value="&lt;font style=&quot;font-size: 18px&quot;&gt;&lt;b&gt;DATABASE FEATURE REQUIREMENT&lt;/b&gt;&lt;/font&gt;" style="text;html=1;strokeColor=none;fillColor=none;align=center;verticalAlign=middle;whiteSpace=wrap;rounded=0;" parent="CzBbysrcIN4NxOCek7Nh-23" vertex="1">
                    <mxGeometry x="180" y="-20" width="690" height="50" as="geometry"/>
                </mxCell>
                <mxCell id="CzBbysrcIN4NxOCek7Nh-30" value="" style="html=1;shadow=0;dashed=0;align=center;verticalAlign=middle;shape=mxgraph.arrows2.jumpInArrow;dy=5;dx=22.51;arrowHead=23.7;rotation=-45;" parent="CzBbysrcIN4NxOCek7Nh-23" vertex="1">
                    <mxGeometry x="-10" y="260" width="204.15" height="225.85" as="geometry"/>
                </mxCell>
                <mxCell id="c3UbohfWcsbxTegdfn7A-58" value="&lt;div&gt;&lt;b&gt;&lt;font style=&quot;font-size: 18px&quot;&gt;&lt;br&gt;&lt;/font&gt;&lt;/b&gt;&lt;/div&gt;&lt;div&gt;&lt;span style=&quot;font-size: 18px&quot;&gt;&lt;b&gt;Recruitment Details List.&lt;/b&gt;&lt;/span&gt;&lt;/div&gt;&lt;div&gt;&lt;span style=&quot;font-size: 18px&quot;&gt;&lt;b&gt;&lt;br&gt;&lt;/b&gt;&lt;/span&gt;&lt;/div&gt;" style="rounded=0;whiteSpace=wrap;html=1;align=center;" parent="CzBbysrcIN4NxOCek7Nh-23" vertex="1">
                    <mxGeometry x="-155" y="530" width="420" height="60" as="geometry"/>
                </mxCell>
                <mxCell id="CzBbysrcIN4NxOCek7Nh-39" style="edgeStyle=orthogonalEdgeStyle;rounded=0;orthogonalLoop=1;jettySize=auto;html=1;" parent="1" source="CzBbysrcIN4NxOCek7Nh-36" target="CzBbysrcIN4NxOCek7Nh-37" edge="1">
                    <mxGeometry relative="1" as="geometry"/>
                </mxCell>
                <mxCell id="CzBbysrcIN4NxOCek7Nh-41" style="edgeStyle=orthogonalEdgeStyle;rounded=0;orthogonalLoop=1;jettySize=auto;html=1;entryX=0.543;entryY=-0.044;entryDx=0;entryDy=0;entryPerimeter=0;" parent="1" source="CzBbysrcIN4NxOCek7Nh-36" target="CzBbysrcIN4NxOCek7Nh-38" edge="1">
                    <mxGeometry relative="1" as="geometry"/>
                </mxCell>
                <mxCell id="CzBbysrcIN4NxOCek7Nh-36" value="&lt;font style=&quot;font-size: 18px&quot;&gt;Candidate Data Storing&lt;/font&gt;" style="rounded=0;whiteSpace=wrap;html=1;align=center;" parent="1" vertex="1">
                    <mxGeometry x="1345" y="520" width="420" height="60" as="geometry"/>
                </mxCell>
                <mxCell id="CzBbysrcIN4NxOCek7Nh-47" value="" style="edgeStyle=orthogonalEdgeStyle;rounded=0;orthogonalLoop=1;jettySize=auto;html=1;" parent="1" source="CzBbysrcIN4NxOCek7Nh-37" target="CzBbysrcIN4NxOCek7Nh-46" edge="1">
                    <mxGeometry relative="1" as="geometry"/>
                </mxCell>
                <mxCell id="CzBbysrcIN4NxOCek7Nh-37" value="Through Social media" style="rounded=0;whiteSpace=wrap;html=1;" parent="1" vertex="1">
                    <mxGeometry x="1330" y="680" width="150" height="50" as="geometry"/>
                </mxCell>
                <mxCell id="CzBbysrcIN4NxOCek7Nh-51" value="" style="edgeStyle=orthogonalEdgeStyle;rounded=0;orthogonalLoop=1;jettySize=auto;html=1;" parent="1" source="CzBbysrcIN4NxOCek7Nh-38" target="CzBbysrcIN4NxOCek7Nh-50" edge="1">
                    <mxGeometry relative="1" as="geometry"/>
                </mxCell>
                <mxCell id="CzBbysrcIN4NxOCek7Nh-38" value="Candidates rejected through recruitment drive" style="rounded=0;whiteSpace=wrap;html=1;" parent="1" vertex="1">
                    <mxGeometry x="1590" y="680" width="190" height="50" as="geometry"/>
                </mxCell>
                <mxCell id="CzBbysrcIN4NxOCek7Nh-45" style="edgeStyle=orthogonalEdgeStyle;rounded=0;orthogonalLoop=1;jettySize=auto;html=1;entryX=1;entryY=0.5;entryDx=0;entryDy=0;" parent="1" source="CzBbysrcIN4NxOCek7Nh-43" target="CzBbysrcIN4NxOCek7Nh-38" edge="1">
                    <mxGeometry relative="1" as="geometry"/>
                </mxCell>
                <mxCell id="CzBbysrcIN4NxOCek7Nh-43" value="rejected candidates in recruitment drive" style="rounded=0;whiteSpace=wrap;html=1;" parent="1" vertex="1">
                    <mxGeometry x="2180" y="540" width="220" height="60" as="geometry"/>
                </mxCell>
                <mxCell id="CzBbysrcIN4NxOCek7Nh-46" value="&lt;font&gt;&lt;b style=&quot;font-size: 18px&quot;&gt;Requirements&lt;/b&gt;&lt;br&gt;&lt;ul&gt;&lt;li style=&quot;text-align: left&quot;&gt;&lt;font style=&quot;font-size: 12px&quot;&gt;A template is required where the user will specify the position/ positions they are looking for, details regarding the position, Country , Salary Details, Description, qualification requirements.&amp;nbsp;&lt;/font&gt;&lt;/li&gt;&lt;li style=&quot;text-align: left&quot;&gt;&lt;font style=&quot;font-size: 12px&quot;&gt;(Description can include contact details regarding the point of contact is email or contact number)&lt;/font&gt;&lt;/li&gt;&lt;li style=&quot;text-align: left&quot;&gt;Using post functionality to post the created message it to a particular linked in and Facebook business accounts.&lt;/li&gt;&lt;li style=&quot;text-align: left&quot;&gt;With Email account provided. use the API to collect resumes from the email account provided and store the details along with the resumes and other details like the email address, name, application position request, gender.&lt;/li&gt;&lt;li style=&quot;text-align: left&quot;&gt;Provide a screen to display all the applicant and provide a way to search through all the unique position they applied or.&lt;/li&gt;&lt;/ul&gt;&lt;/font&gt;" style="whiteSpace=wrap;html=1;rounded=0;" parent="1" vertex="1">
                    <mxGeometry x="1265" y="820" width="280" height="380" as="geometry"/>
                </mxCell>
                <mxCell id="CzBbysrcIN4NxOCek7Nh-52" style="edgeStyle=orthogonalEdgeStyle;rounded=0;orthogonalLoop=1;jettySize=auto;html=1;entryX=0.991;entryY=0.353;entryDx=0;entryDy=0;entryPerimeter=0;" parent="1" source="CzBbysrcIN4NxOCek7Nh-50" target="CzBbysrcIN4NxOCek7Nh-46" edge="1">
                    <mxGeometry relative="1" as="geometry"/>
                </mxCell>
                <mxCell id="CzBbysrcIN4NxOCek7Nh-50" value="add&amp;nbsp; the details of the candidates in the datebase for further opportunities." style="whiteSpace=wrap;html=1;rounded=0;" parent="1" vertex="1">
                    <mxGeometry x="1750" y="900" width="250" height="110" as="geometry"/>
                </mxCell>
            </root>
        </mxGraphModel>
    </diagram>
    <diagram id="NOFOB6P0dte-mMbBLWMm" name="Database Design">
        <mxGraphModel dx="1466" dy="1136" grid="1" gridSize="10" guides="1" tooltips="1" connect="1" arrows="1" fold="1" page="0" pageScale="1" pageWidth="850" pageHeight="1100" background="none" math="0" shadow="0">
            <root>
                <mxCell id="z_rlmheR3kkfY81NdptR-0"/>
                <mxCell id="z_rlmheR3kkfY81NdptR-1" parent="z_rlmheR3kkfY81NdptR-0"/>
                <mxCell id="AjSMn2qY77L6pTCkPBIO-44" value="" style="edgeStyle=entityRelationEdgeStyle;fontSize=12;html=1;endArrow=ERzeroToMany;startArrow=ERzeroToOne;exitX=1;exitY=0.5;exitDx=0;exitDy=0;entryX=0;entryY=0.5;entryDx=0;entryDy=0;" parent="z_rlmheR3kkfY81NdptR-1" source="qcg3cBotRkZT5oNRFvy3-0" target="PYySrQwHKu96aM0ZfTiS-38" edge="1">
                    <mxGeometry width="100" height="100" relative="1" as="geometry">
                        <mxPoint x="110" y="310" as="sourcePoint"/>
                        <mxPoint x="1120" y="-20" as="targetPoint"/>
                    </mxGeometry>
                </mxCell>
                <mxCell id="AjSMn2qY77L6pTCkPBIO-7" value="" style="edgeStyle=entityRelationEdgeStyle;fontSize=12;html=1;endArrow=ERzeroToMany;startArrow=ERmandOne;entryX=0;entryY=0.5;entryDx=0;entryDy=0;exitX=1;exitY=0.5;exitDx=0;exitDy=0;" parent="z_rlmheR3kkfY81NdptR-1" source="AIpo-1skq73D4Y5ld0GA-0" target="y8cb8UkhQbV5cXnKdwQa-14" edge="1">
                    <mxGeometry width="100" height="100" relative="1" as="geometry">
                        <mxPoint x="440" y="400" as="sourcePoint"/>
                        <mxPoint x="540" y="300" as="targetPoint"/>
                    </mxGeometry>
                </mxCell>
                <mxCell id="AjSMn2qY77L6pTCkPBIO-9" value="" style="edgeStyle=entityRelationEdgeStyle;fontSize=12;html=1;endArrow=ERmandOne;startArrow=ERmandOne;entryX=-0.002;entryY=0.87;entryDx=0;entryDy=0;entryPerimeter=0;exitX=1;exitY=0.5;exitDx=0;exitDy=0;" parent="z_rlmheR3kkfY81NdptR-1" source="y8cb8UkhQbV5cXnKdwQa-14" target="hqA5xJ0h6HDviLcu-Pwc-1" edge="1">
                    <mxGeometry width="100" height="100" relative="1" as="geometry">
                        <mxPoint x="720" y="520" as="sourcePoint"/>
                        <mxPoint x="820" y="420" as="targetPoint"/>
                    </mxGeometry>
                </mxCell>
                <mxCell id="hqA5xJ0h6HDviLcu-Pwc-0" value="Specialization List" style="shape=table;startSize=30;container=1;collapsible=1;childLayout=tableLayout;fixedRows=1;rowLines=0;fontStyle=1;align=center;resizeLast=1;" parent="z_rlmheR3kkfY81NdptR-1" vertex="1" collapsed="1">
                    <mxGeometry x="730" y="500" width="140" height="30" as="geometry">
                        <mxRectangle x="730" y="500" width="200" height="70" as="alternateBounds"/>
                    </mxGeometry>
                </mxCell>
                <mxCell id="hqA5xJ0h6HDviLcu-Pwc-1" value="" style="shape=partialRectangle;collapsible=0;dropTarget=0;pointerEvents=0;fillColor=none;top=0;left=0;bottom=1;right=0;points=[[0,0.5],[1,0.5]];portConstraint=eastwest;" parent="hqA5xJ0h6HDviLcu-Pwc-0" vertex="1">
                    <mxGeometry y="30" width="200" height="20" as="geometry"/>
                </mxCell>
                <mxCell id="hqA5xJ0h6HDviLcu-Pwc-2" value="PK" style="shape=partialRectangle;connectable=0;fillColor=none;top=0;left=0;bottom=0;right=0;fontStyle=1;overflow=hidden;" parent="hqA5xJ0h6HDviLcu-Pwc-1" vertex="1">
                    <mxGeometry width="30" height="20" as="geometry"/>
                </mxCell>
                <mxCell id="hqA5xJ0h6HDviLcu-Pwc-3" value="SpecializationID : String" style="shape=partialRectangle;connectable=0;fillColor=none;top=0;left=0;bottom=0;right=0;align=left;spacingLeft=6;fontStyle=5;overflow=hidden;" parent="hqA5xJ0h6HDviLcu-Pwc-1" vertex="1">
                    <mxGeometry x="30" width="170" height="20" as="geometry"/>
                </mxCell>
                <mxCell id="hqA5xJ0h6HDviLcu-Pwc-4" value="" style="shape=partialRectangle;collapsible=0;dropTarget=0;pointerEvents=0;fillColor=none;top=0;left=0;bottom=0;right=0;points=[[0,0.5],[1,0.5]];portConstraint=eastwest;" parent="hqA5xJ0h6HDviLcu-Pwc-0" vertex="1">
                    <mxGeometry y="50" width="200" height="20" as="geometry"/>
                </mxCell>
                <mxCell id="hqA5xJ0h6HDviLcu-Pwc-5" value="" style="shape=partialRectangle;connectable=0;fillColor=none;top=0;left=0;bottom=0;right=0;editable=1;overflow=hidden;" parent="hqA5xJ0h6HDviLcu-Pwc-4" vertex="1">
                    <mxGeometry width="30" height="20" as="geometry"/>
                </mxCell>
                <mxCell id="hqA5xJ0h6HDviLcu-Pwc-6" value="Specialization : String" style="shape=partialRectangle;connectable=0;fillColor=none;top=0;left=0;bottom=0;right=0;align=left;spacingLeft=6;overflow=hidden;" parent="hqA5xJ0h6HDviLcu-Pwc-4" vertex="1">
                    <mxGeometry x="30" width="170" height="20" as="geometry"/>
                </mxCell>
                <mxCell id="y8cb8UkhQbV5cXnKdwQa-13" value="Candidate Specialization Junction" style="shape=table;startSize=40;container=1;collapsible=1;childLayout=tableLayout;fixedRows=1;rowLines=0;fontStyle=1;align=center;resizeLast=1;" parent="z_rlmheR3kkfY81NdptR-1" vertex="1">
                    <mxGeometry x="430" y="370" width="210" height="100" as="geometry">
                        <mxRectangle x="430" y="370" width="230" height="30" as="alternateBounds"/>
                    </mxGeometry>
                </mxCell>
                <mxCell id="y8cb8UkhQbV5cXnKdwQa-14" value="" style="shape=partialRectangle;collapsible=0;dropTarget=0;pointerEvents=0;fillColor=none;top=0;left=0;bottom=1;right=0;points=[[0,0.5],[1,0.5]];portConstraint=eastwest;" parent="y8cb8UkhQbV5cXnKdwQa-13" vertex="1">
                    <mxGeometry y="40" width="210" height="20" as="geometry"/>
                </mxCell>
                <mxCell id="y8cb8UkhQbV5cXnKdwQa-15" value="PK,FK" style="shape=partialRectangle;connectable=0;fillColor=none;top=0;left=0;bottom=0;right=0;fontStyle=1;overflow=hidden;fontSize=8;" parent="y8cb8UkhQbV5cXnKdwQa-14" vertex="1">
                    <mxGeometry width="30" height="20" as="geometry"/>
                </mxCell>
                <mxCell id="y8cb8UkhQbV5cXnKdwQa-16" value="CandidateID : Integer" style="shape=partialRectangle;connectable=0;fillColor=none;top=0;left=0;bottom=0;right=0;align=left;spacingLeft=6;fontStyle=5;overflow=hidden;" parent="y8cb8UkhQbV5cXnKdwQa-14" vertex="1">
                    <mxGeometry x="30" width="180" height="20" as="geometry"/>
                </mxCell>
                <mxCell id="y8cb8UkhQbV5cXnKdwQa-35" value="" style="shape=partialRectangle;collapsible=0;dropTarget=0;pointerEvents=0;fillColor=none;top=0;left=0;bottom=1;right=0;points=[[0,0.5],[1,0.5]];portConstraint=eastwest;" parent="y8cb8UkhQbV5cXnKdwQa-13" vertex="1">
                    <mxGeometry y="60" width="210" height="20" as="geometry"/>
                </mxCell>
                <mxCell id="y8cb8UkhQbV5cXnKdwQa-36" value="PK,FK" style="shape=partialRectangle;connectable=0;fillColor=none;top=0;left=0;bottom=0;right=0;fontStyle=1;overflow=hidden;fontSize=8;" parent="y8cb8UkhQbV5cXnKdwQa-35" vertex="1">
                    <mxGeometry width="30" height="20" as="geometry"/>
                </mxCell>
                <mxCell id="y8cb8UkhQbV5cXnKdwQa-37" value="SpecializationID : Integer" style="shape=partialRectangle;connectable=0;fillColor=none;top=0;left=0;bottom=0;right=0;align=left;spacingLeft=6;fontStyle=5;overflow=hidden;" parent="y8cb8UkhQbV5cXnKdwQa-35" vertex="1">
                    <mxGeometry x="30" width="180" height="20" as="geometry"/>
                </mxCell>
                <mxCell id="y8cb8UkhQbV5cXnKdwQa-17" value="" style="shape=partialRectangle;collapsible=0;dropTarget=0;pointerEvents=0;fillColor=none;top=0;left=0;bottom=0;right=0;points=[[0,0.5],[1,0.5]];portConstraint=eastwest;" parent="y8cb8UkhQbV5cXnKdwQa-13" vertex="1">
                    <mxGeometry y="80" width="210" height="20" as="geometry"/>
                </mxCell>
                <mxCell id="y8cb8UkhQbV5cXnKdwQa-18" value="" style="shape=partialRectangle;connectable=0;fillColor=none;top=0;left=0;bottom=0;right=0;editable=1;overflow=hidden;" parent="y8cb8UkhQbV5cXnKdwQa-17" vertex="1">
                    <mxGeometry width="30" height="20" as="geometry"/>
                </mxCell>
                <mxCell id="y8cb8UkhQbV5cXnKdwQa-19" value="Experience : Float" style="shape=partialRectangle;connectable=0;fillColor=none;top=0;left=0;bottom=0;right=0;align=left;spacingLeft=6;overflow=hidden;" parent="y8cb8UkhQbV5cXnKdwQa-17" vertex="1">
                    <mxGeometry x="30" width="180" height="20" as="geometry"/>
                </mxCell>
                <mxCell id="AjSMn2qY77L6pTCkPBIO-10" value="" style="edgeStyle=entityRelationEdgeStyle;fontSize=12;html=1;endArrow=ERzeroToOne;endFill=1;exitX=0.5;exitY=0;exitDx=0;exitDy=0;entryX=0;entryY=0.5;entryDx=0;entryDy=0;" parent="z_rlmheR3kkfY81NdptR-1" source="OGR9EY1ze3uBQYHD45Le-19" target="2Ph6cSed9HIYBqe1UAY9-0" edge="1">
                    <mxGeometry width="100" height="100" relative="1" as="geometry">
                        <mxPoint x="220" y="280" as="sourcePoint"/>
                        <mxPoint x="320" y="180" as="targetPoint"/>
                    </mxGeometry>
                </mxCell>
                <mxCell id="AjSMn2qY77L6pTCkPBIO-11" value="" style="edgeStyle=entityRelationEdgeStyle;fontSize=12;html=1;endArrow=ERzeroToOne;endFill=1;exitX=1;exitY=0.5;exitDx=0;exitDy=0;entryX=0;entryY=0.5;entryDx=0;entryDy=0;" parent="z_rlmheR3kkfY81NdptR-1" source="PYySrQwHKu96aM0ZfTiS-10" target="2jpVa8-jFRswER65Fc-i-4" edge="1">
                    <mxGeometry width="100" height="100" relative="1" as="geometry">
                        <mxPoint x="195" y="860" as="sourcePoint"/>
                        <mxPoint x="350" y="630" as="targetPoint"/>
                    </mxGeometry>
                </mxCell>
                <mxCell id="AjSMn2qY77L6pTCkPBIO-29" value="" style="edgeStyle=entityRelationEdgeStyle;fontSize=12;html=1;endArrow=ERzeroToOne;endFill=1;exitX=0.5;exitY=0;exitDx=0;exitDy=0;entryX=-0.02;entryY=-0.26;entryDx=0;entryDy=0;entryPerimeter=0;" parent="z_rlmheR3kkfY81NdptR-1" source="OGR9EY1ze3uBQYHD45Le-19" target="XFd1rmUD097lWMeRVB7E-10" edge="1">
                    <mxGeometry width="100" height="100" relative="1" as="geometry">
                        <mxPoint x="120" y="310" as="sourcePoint"/>
                        <mxPoint x="220" y="210" as="targetPoint"/>
                    </mxGeometry>
                </mxCell>
                <mxCell id="AjSMn2qY77L6pTCkPBIO-31" value="" style="edgeStyle=entityRelationEdgeStyle;fontSize=12;html=1;endArrow=ERmandOne;exitX=1;exitY=0.5;exitDx=0;exitDy=0;entryX=0;entryY=0.5;entryDx=0;entryDy=0;" parent="z_rlmheR3kkfY81NdptR-1" source="2Ph6cSed9HIYBqe1UAY9-6" target="ZNbfZpURQgJpnQqo9UI7-7" edge="1">
                    <mxGeometry width="100" height="100" relative="1" as="geometry">
                        <mxPoint x="750" y="260" as="sourcePoint"/>
                        <mxPoint x="850" y="160" as="targetPoint"/>
                    </mxGeometry>
                </mxCell>
                <mxCell id="AjSMn2qY77L6pTCkPBIO-33" style="edgeStyle=entityRelationEdgeStyle;orthogonalLoop=1;jettySize=auto;html=1;entryX=0.002;entryY=0.19;entryDx=0;entryDy=0;startArrow=ERmandOne;endArrow=ERzeroToMany;fontSize=12;entryPerimeter=0;" parent="z_rlmheR3kkfY81NdptR-1" source="zLNETc5M1Xkdi722oHCQ-0" target="PYySrQwHKu96aM0ZfTiS-1" edge="1">
                    <mxGeometry relative="1" as="geometry"/>
                </mxCell>
                <mxCell id="AjSMn2qY77L6pTCkPBIO-37" value="" style="edgeStyle=entityRelationEdgeStyle;fontSize=12;html=1;endArrow=ERzeroToMany;startArrow=ERmandOne;exitX=1;exitY=0.5;exitDx=0;exitDy=0;entryX=0;entryY=0.5;entryDx=0;entryDy=0;" parent="z_rlmheR3kkfY81NdptR-1" source="hqA5xJ0h6HDviLcu-Pwc-1" target="PYySrQwHKu96aM0ZfTiS-7" edge="1">
                    <mxGeometry width="100" height="100" relative="1" as="geometry">
                        <mxPoint x="940" y="530" as="sourcePoint"/>
                        <mxPoint x="1040" y="430" as="targetPoint"/>
                    </mxGeometry>
                </mxCell>
                <mxCell id="AjSMn2qY77L6pTCkPBIO-40" value="" style="edgeStyle=entityRelationEdgeStyle;fontSize=12;html=1;endArrow=ERzeroToMany;startArrow=ERmandOne;entryX=0;entryY=0.5;entryDx=0;entryDy=0;exitX=1;exitY=0.5;exitDx=0;exitDy=0;" parent="z_rlmheR3kkfY81NdptR-1" source="PYySrQwHKu96aM0ZfTiS-38" target="zLNETc5M1Xkdi722oHCQ-1" edge="1">
                    <mxGeometry width="100" height="100" relative="1" as="geometry">
                        <mxPoint x="1330" y="310" as="sourcePoint"/>
                        <mxPoint x="1430" y="210" as="targetPoint"/>
                    </mxGeometry>
                </mxCell>
                <mxCell id="AjSMn2qY77L6pTCkPBIO-43" value="" style="edgeStyle=entityRelationEdgeStyle;fontSize=12;html=1;endArrow=ERzeroToMany;startArrow=ERzeroToOne;entryX=0;entryY=0.5;entryDx=0;entryDy=0;exitX=1;exitY=0.5;exitDx=0;exitDy=0;" parent="z_rlmheR3kkfY81NdptR-1" source="ZNbfZpURQgJpnQqo9UI7-10" target="zLNETc5M1Xkdi722oHCQ-13" edge="1">
                    <mxGeometry width="100" height="100" relative="1" as="geometry">
                        <mxPoint x="760" y="340" as="sourcePoint"/>
                        <mxPoint x="860" y="240" as="targetPoint"/>
                    </mxGeometry>
                </mxCell>
                <mxCell id="PYySrQwHKu96aM0ZfTiS-13" value="Recruitment List" style="shape=table;startSize=30;container=1;collapsible=1;childLayout=tableLayout;fixedRows=1;rowLines=0;fontStyle=1;align=center;resizeLast=1;" parent="z_rlmheR3kkfY81NdptR-1" vertex="1">
                    <mxGeometry x="780" y="270" width="210" height="110" as="geometry">
                        <mxRectangle x="780" y="270" width="120" height="30" as="alternateBounds"/>
                    </mxGeometry>
                </mxCell>
                <mxCell id="PYySrQwHKu96aM0ZfTiS-14" value="" style="shape=partialRectangle;collapsible=0;dropTarget=0;pointerEvents=0;fillColor=none;top=0;left=0;bottom=1;right=0;points=[[0,0.5],[1,0.5]];portConstraint=eastwest;" parent="PYySrQwHKu96aM0ZfTiS-13" vertex="1">
                    <mxGeometry y="30" width="210" height="20" as="geometry"/>
                </mxCell>
                <mxCell id="PYySrQwHKu96aM0ZfTiS-15" value="PK" style="shape=partialRectangle;connectable=0;fillColor=none;top=0;left=0;bottom=0;right=0;fontStyle=1;overflow=hidden;" parent="PYySrQwHKu96aM0ZfTiS-14" vertex="1">
                    <mxGeometry width="30" height="20" as="geometry"/>
                </mxCell>
                <mxCell id="PYySrQwHKu96aM0ZfTiS-16" value="RecruitmentID : Integer" style="shape=partialRectangle;connectable=0;fillColor=none;top=0;left=0;bottom=0;right=0;align=left;spacingLeft=6;fontStyle=5;overflow=hidden;" parent="PYySrQwHKu96aM0ZfTiS-14" vertex="1">
                    <mxGeometry x="30" width="180" height="20" as="geometry"/>
                </mxCell>
                <mxCell id="PYySrQwHKu96aM0ZfTiS-38" value="" style="shape=partialRectangle;collapsible=0;dropTarget=0;pointerEvents=0;fillColor=none;top=0;left=0;bottom=0;right=0;points=[[0,0.5],[1,0.5]];portConstraint=eastwest;" parent="PYySrQwHKu96aM0ZfTiS-13" vertex="1">
                    <mxGeometry y="50" width="210" height="20" as="geometry"/>
                </mxCell>
                <mxCell id="PYySrQwHKu96aM0ZfTiS-39" value="PK" style="shape=partialRectangle;connectable=0;fillColor=none;top=0;left=0;bottom=0;right=0;editable=1;overflow=hidden;" parent="PYySrQwHKu96aM0ZfTiS-38" vertex="1">
                    <mxGeometry width="30" height="20" as="geometry"/>
                </mxCell>
                <mxCell id="PYySrQwHKu96aM0ZfTiS-40" value="CandidateID : Integer" style="shape=partialRectangle;connectable=0;fillColor=none;top=0;left=0;bottom=0;right=0;align=left;spacingLeft=6;overflow=hidden;" parent="PYySrQwHKu96aM0ZfTiS-38" vertex="1">
                    <mxGeometry x="30" width="180" height="20" as="geometry"/>
                </mxCell>
                <mxCell id="PYySrQwHKu96aM0ZfTiS-44" value="" style="shape=partialRectangle;collapsible=0;dropTarget=0;pointerEvents=0;fillColor=none;top=0;left=0;bottom=0;right=0;points=[[0,0.5],[1,0.5]];portConstraint=eastwest;" parent="PYySrQwHKu96aM0ZfTiS-13" vertex="1">
                    <mxGeometry y="70" width="210" height="20" as="geometry"/>
                </mxCell>
                <mxCell id="PYySrQwHKu96aM0ZfTiS-45" value="" style="shape=partialRectangle;connectable=0;fillColor=none;top=0;left=0;bottom=0;right=0;editable=1;overflow=hidden;" parent="PYySrQwHKu96aM0ZfTiS-44" vertex="1">
                    <mxGeometry width="30" height="20" as="geometry"/>
                </mxCell>
                <mxCell id="PYySrQwHKu96aM0ZfTiS-46" value="Shortlisted : Integer" style="shape=partialRectangle;connectable=0;fillColor=none;top=0;left=0;bottom=0;right=0;align=left;spacingLeft=6;overflow=hidden;" parent="PYySrQwHKu96aM0ZfTiS-44" vertex="1">
                    <mxGeometry x="30" width="180" height="20" as="geometry"/>
                </mxCell>
                <mxCell id="PYySrQwHKu96aM0ZfTiS-47" value="" style="shape=partialRectangle;collapsible=0;dropTarget=0;pointerEvents=0;fillColor=none;top=0;left=0;bottom=0;right=0;points=[[0,0.5],[1,0.5]];portConstraint=eastwest;" parent="PYySrQwHKu96aM0ZfTiS-13" vertex="1">
                    <mxGeometry y="90" width="210" height="20" as="geometry"/>
                </mxCell>
                <mxCell id="PYySrQwHKu96aM0ZfTiS-48" value="" style="shape=partialRectangle;connectable=0;fillColor=none;top=0;left=0;bottom=0;right=0;editable=1;overflow=hidden;" parent="PYySrQwHKu96aM0ZfTiS-47" vertex="1">
                    <mxGeometry width="30" height="20" as="geometry"/>
                </mxCell>
                <mxCell id="PYySrQwHKu96aM0ZfTiS-49" value="Interview Selected : Integer" style="shape=partialRectangle;connectable=0;fillColor=none;top=0;left=0;bottom=0;right=0;align=left;spacingLeft=6;overflow=hidden;" parent="PYySrQwHKu96aM0ZfTiS-47" vertex="1">
                    <mxGeometry x="30" width="180" height="20" as="geometry"/>
                </mxCell>
                <mxCell id="M5PYDRmtZQIQ59ATrynn-0" value="visa_info" style="shape=table;startSize=30;container=1;collapsible=1;childLayout=tableLayout;fixedRows=1;rowLines=0;fontStyle=1;align=center;resizeLast=1;" parent="z_rlmheR3kkfY81NdptR-1" vertex="1">
                    <mxGeometry x="500" y="-110" width="220" height="240" as="geometry">
                        <mxRectangle x="500" y="-110" width="110" height="30" as="alternateBounds"/>
                    </mxGeometry>
                </mxCell>
                <mxCell id="M5PYDRmtZQIQ59ATrynn-1" value="" style="shape=partialRectangle;collapsible=0;dropTarget=0;pointerEvents=0;fillColor=none;top=0;left=0;bottom=1;right=0;points=[[0,0.5],[1,0.5]];portConstraint=eastwest;" parent="M5PYDRmtZQIQ59ATrynn-0" vertex="1">
                    <mxGeometry y="30" width="220" height="30" as="geometry"/>
                </mxCell>
                <mxCell id="M5PYDRmtZQIQ59ATrynn-2" value="PK" style="shape=partialRectangle;connectable=0;fillColor=none;top=0;left=0;bottom=0;right=0;fontStyle=1;overflow=hidden;fontSize=9;" parent="M5PYDRmtZQIQ59ATrynn-1" vertex="1">
                    <mxGeometry width="30" height="30" as="geometry"/>
                </mxCell>
                <mxCell id="M5PYDRmtZQIQ59ATrynn-3" value="VisaID" style="shape=partialRectangle;connectable=0;fillColor=none;top=0;left=0;bottom=0;right=0;align=left;spacingLeft=6;fontStyle=5;overflow=hidden;" parent="M5PYDRmtZQIQ59ATrynn-1" vertex="1">
                    <mxGeometry x="30" width="190" height="30" as="geometry"/>
                </mxCell>
                <mxCell id="M5PYDRmtZQIQ59ATrynn-4" value="" style="shape=partialRectangle;collapsible=0;dropTarget=0;pointerEvents=0;fillColor=none;top=0;left=0;bottom=0;right=0;points=[[0,0.5],[1,0.5]];portConstraint=eastwest;" parent="M5PYDRmtZQIQ59ATrynn-0" vertex="1">
                    <mxGeometry y="60" width="220" height="20" as="geometry"/>
                </mxCell>
                <mxCell id="M5PYDRmtZQIQ59ATrynn-5" value="FK" style="shape=partialRectangle;connectable=0;fillColor=none;top=0;left=0;bottom=0;right=0;editable=1;overflow=hidden;" parent="M5PYDRmtZQIQ59ATrynn-4" vertex="1">
                    <mxGeometry width="30" height="20" as="geometry"/>
                </mxCell>
                <mxCell id="M5PYDRmtZQIQ59ATrynn-6" value="CandidateID : Integer" style="shape=partialRectangle;connectable=0;fillColor=none;top=0;left=0;bottom=0;right=0;align=left;spacingLeft=6;overflow=hidden;" parent="M5PYDRmtZQIQ59ATrynn-4" vertex="1">
                    <mxGeometry x="30" width="190" height="20" as="geometry"/>
                </mxCell>
                <mxCell id="M5PYDRmtZQIQ59ATrynn-7" value="" style="shape=partialRectangle;collapsible=0;dropTarget=0;pointerEvents=0;fillColor=none;top=0;left=0;bottom=0;right=0;points=[[0,0.5],[1,0.5]];portConstraint=eastwest;" parent="M5PYDRmtZQIQ59ATrynn-0" vertex="1">
                    <mxGeometry y="80" width="220" height="20" as="geometry"/>
                </mxCell>
                <mxCell id="M5PYDRmtZQIQ59ATrynn-8" value="FK" style="shape=partialRectangle;connectable=0;fillColor=none;top=0;left=0;bottom=0;right=0;editable=1;overflow=hidden;" parent="M5PYDRmtZQIQ59ATrynn-7" vertex="1">
                    <mxGeometry width="30" height="20" as="geometry"/>
                </mxCell>
                <mxCell id="M5PYDRmtZQIQ59ATrynn-9" value="SponsorID : Integer" style="shape=partialRectangle;connectable=0;fillColor=none;top=0;left=0;bottom=0;right=0;align=left;spacingLeft=6;overflow=hidden;" parent="M5PYDRmtZQIQ59ATrynn-7" vertex="1">
                    <mxGeometry x="30" width="190" height="20" as="geometry"/>
                </mxCell>
                <mxCell id="M5PYDRmtZQIQ59ATrynn-10" value="" style="shape=partialRectangle;collapsible=0;dropTarget=0;pointerEvents=0;fillColor=none;top=0;left=0;bottom=0;right=0;points=[[0,0.5],[1,0.5]];portConstraint=eastwest;" parent="M5PYDRmtZQIQ59ATrynn-0" vertex="1">
                    <mxGeometry y="100" width="220" height="20" as="geometry"/>
                </mxCell>
                <mxCell id="M5PYDRmtZQIQ59ATrynn-11" value="" style="shape=partialRectangle;connectable=0;fillColor=none;top=0;left=0;bottom=0;right=0;editable=1;overflow=hidden;" parent="M5PYDRmtZQIQ59ATrynn-10" vertex="1">
                    <mxGeometry width="30" height="20" as="geometry"/>
                </mxCell>
                <mxCell id="M5PYDRmtZQIQ59ATrynn-12" value="PassportSubDate : Date" style="shape=partialRectangle;connectable=0;fillColor=none;top=0;left=0;bottom=0;right=0;align=left;spacingLeft=6;overflow=hidden;" parent="M5PYDRmtZQIQ59ATrynn-10" vertex="1">
                    <mxGeometry x="30" width="190" height="20" as="geometry"/>
                </mxCell>
                <mxCell id="2Ph6cSed9HIYBqe1UAY9-0" value="" style="shape=partialRectangle;collapsible=0;dropTarget=0;pointerEvents=0;fillColor=none;top=0;left=0;bottom=0;right=0;points=[[0,0.5],[1,0.5]];portConstraint=eastwest;" parent="M5PYDRmtZQIQ59ATrynn-0" vertex="1">
                    <mxGeometry y="120" width="220" height="20" as="geometry"/>
                </mxCell>
                <mxCell id="2Ph6cSed9HIYBqe1UAY9-1" value="" style="shape=partialRectangle;connectable=0;fillColor=none;top=0;left=0;bottom=0;right=0;editable=1;overflow=hidden;" parent="2Ph6cSed9HIYBqe1UAY9-0" vertex="1">
                    <mxGeometry width="30" height="20" as="geometry"/>
                </mxCell>
                <mxCell id="2Ph6cSed9HIYBqe1UAY9-2" value="PassportColDate : date" style="shape=partialRectangle;connectable=0;fillColor=none;top=0;left=0;bottom=0;right=0;align=left;spacingLeft=6;overflow=hidden;" parent="2Ph6cSed9HIYBqe1UAY9-0" vertex="1">
                    <mxGeometry x="30" width="190" height="20" as="geometry"/>
                </mxCell>
                <mxCell id="2Ph6cSed9HIYBqe1UAY9-3" value="" style="shape=partialRectangle;collapsible=0;dropTarget=0;pointerEvents=0;fillColor=none;top=0;left=0;bottom=0;right=0;points=[[0,0.5],[1,0.5]];portConstraint=eastwest;" parent="M5PYDRmtZQIQ59ATrynn-0" vertex="1">
                    <mxGeometry y="140" width="220" height="20" as="geometry"/>
                </mxCell>
                <mxCell id="2Ph6cSed9HIYBqe1UAY9-4" value="" style="shape=partialRectangle;connectable=0;fillColor=none;top=0;left=0;bottom=0;right=0;editable=1;overflow=hidden;" parent="2Ph6cSed9HIYBqe1UAY9-3" vertex="1">
                    <mxGeometry width="30" height="20" as="geometry"/>
                </mxCell>
                <mxCell id="2Ph6cSed9HIYBqe1UAY9-5" value="VisaNumber : Integer" style="shape=partialRectangle;connectable=0;fillColor=none;top=0;left=0;bottom=0;right=0;align=left;spacingLeft=6;overflow=hidden;" parent="2Ph6cSed9HIYBqe1UAY9-3" vertex="1">
                    <mxGeometry x="30" width="190" height="20" as="geometry"/>
                </mxCell>
                <mxCell id="2Ph6cSed9HIYBqe1UAY9-6" value="" style="shape=partialRectangle;collapsible=0;dropTarget=0;pointerEvents=0;fillColor=none;top=0;left=0;bottom=0;right=0;points=[[0,0.5],[1,0.5]];portConstraint=eastwest;" parent="M5PYDRmtZQIQ59ATrynn-0" vertex="1">
                    <mxGeometry y="160" width="220" height="20" as="geometry"/>
                </mxCell>
                <mxCell id="2Ph6cSed9HIYBqe1UAY9-7" value="" style="shape=partialRectangle;connectable=0;fillColor=none;top=0;left=0;bottom=0;right=0;editable=1;overflow=hidden;" parent="2Ph6cSed9HIYBqe1UAY9-6" vertex="1">
                    <mxGeometry width="30" height="20" as="geometry"/>
                </mxCell>
                <mxCell id="2Ph6cSed9HIYBqe1UAY9-8" value="VisaCopy : FileLocation" style="shape=partialRectangle;connectable=0;fillColor=none;top=0;left=0;bottom=0;right=0;align=left;spacingLeft=6;overflow=hidden;" parent="2Ph6cSed9HIYBqe1UAY9-6" vertex="1">
                    <mxGeometry x="30" width="190" height="20" as="geometry"/>
                </mxCell>
                <mxCell id="QJ_qDJtZRkeNsv-eOPp4-0" value="" style="shape=partialRectangle;collapsible=0;dropTarget=0;pointerEvents=0;fillColor=none;top=0;left=0;bottom=0;right=0;points=[[0,0.5],[1,0.5]];portConstraint=eastwest;" parent="M5PYDRmtZQIQ59ATrynn-0" vertex="1">
                    <mxGeometry y="180" width="220" height="20" as="geometry"/>
                </mxCell>
                <mxCell id="QJ_qDJtZRkeNsv-eOPp4-1" value="" style="shape=partialRectangle;connectable=0;fillColor=none;top=0;left=0;bottom=0;right=0;editable=1;overflow=hidden;" parent="QJ_qDJtZRkeNsv-eOPp4-0" vertex="1">
                    <mxGeometry width="30" height="20" as="geometry"/>
                </mxCell>
                <mxCell id="QJ_qDJtZRkeNsv-eOPp4-2" value="VisaDate : Date" style="shape=partialRectangle;connectable=0;fillColor=none;top=0;left=0;bottom=0;right=0;align=left;spacingLeft=6;overflow=hidden;" parent="QJ_qDJtZRkeNsv-eOPp4-0" vertex="1">
                    <mxGeometry x="30" width="190" height="20" as="geometry"/>
                </mxCell>
                <mxCell id="3a-WPtRv09fDBJWCgKw7-0" value="" style="shape=partialRectangle;collapsible=0;dropTarget=0;pointerEvents=0;fillColor=none;top=0;left=0;bottom=0;right=0;points=[[0,0.5],[1,0.5]];portConstraint=eastwest;" parent="M5PYDRmtZQIQ59ATrynn-0" vertex="1">
                    <mxGeometry y="200" width="220" height="20" as="geometry"/>
                </mxCell>
                <mxCell id="3a-WPtRv09fDBJWCgKw7-1" value="" style="shape=partialRectangle;connectable=0;fillColor=none;top=0;left=0;bottom=0;right=0;editable=1;overflow=hidden;" parent="3a-WPtRv09fDBJWCgKw7-0" vertex="1">
                    <mxGeometry width="30" height="20" as="geometry"/>
                </mxCell>
                <mxCell id="3a-WPtRv09fDBJWCgKw7-2" value="Remark : String" style="shape=partialRectangle;connectable=0;fillColor=none;top=0;left=0;bottom=0;right=0;align=left;spacingLeft=6;overflow=hidden;" parent="3a-WPtRv09fDBJWCgKw7-0" vertex="1">
                    <mxGeometry x="30" width="190" height="20" as="geometry"/>
                </mxCell>
                <mxCell id="MW64l1u3JNlsdLoFTWu5-0" value="" style="shape=partialRectangle;collapsible=0;dropTarget=0;pointerEvents=0;fillColor=none;top=0;left=0;bottom=0;right=0;points=[[0,0.5],[1,0.5]];portConstraint=eastwest;" parent="M5PYDRmtZQIQ59ATrynn-0" vertex="1">
                    <mxGeometry y="220" width="220" height="20" as="geometry"/>
                </mxCell>
                <mxCell id="MW64l1u3JNlsdLoFTWu5-1" value="" style="shape=partialRectangle;connectable=0;fillColor=none;top=0;left=0;bottom=0;right=0;editable=1;overflow=hidden;" parent="MW64l1u3JNlsdLoFTWu5-0" vertex="1">
                    <mxGeometry width="30" height="20" as="geometry"/>
                </mxCell>
                <mxCell id="MW64l1u3JNlsdLoFTWu5-2" value="Date of Update : Date" style="shape=partialRectangle;connectable=0;fillColor=none;top=0;left=0;bottom=0;right=0;align=left;spacingLeft=6;overflow=hidden;" parent="MW64l1u3JNlsdLoFTWu5-0" vertex="1">
                    <mxGeometry x="30" width="190" height="20" as="geometry"/>
                </mxCell>
                <mxCell id="XFd1rmUD097lWMeRVB7E-3" value="Candidate Proof" style="shape=table;startSize=30;container=1;collapsible=1;childLayout=tableLayout;fixedRows=1;rowLines=0;fontStyle=1;align=center;resizeLast=1;" parent="z_rlmheR3kkfY81NdptR-1" vertex="1">
                    <mxGeometry x="505" y="150" width="225" height="100" as="geometry">
                        <mxRectangle x="505" y="150" width="130" height="30" as="alternateBounds"/>
                    </mxGeometry>
                </mxCell>
                <mxCell id="XFd1rmUD097lWMeRVB7E-4" value="" style="shape=partialRectangle;collapsible=0;dropTarget=0;pointerEvents=0;fillColor=none;top=0;left=0;bottom=1;right=0;points=[[0,0.5],[1,0.5]];portConstraint=eastwest;" parent="XFd1rmUD097lWMeRVB7E-3" vertex="1">
                    <mxGeometry y="30" width="225" height="20" as="geometry"/>
                </mxCell>
                <mxCell id="XFd1rmUD097lWMeRVB7E-5" value="PK,FK" style="shape=partialRectangle;connectable=0;fillColor=none;top=0;left=0;bottom=0;right=0;fontStyle=1;overflow=hidden;fontSize=8;" parent="XFd1rmUD097lWMeRVB7E-4" vertex="1">
                    <mxGeometry width="30" height="20" as="geometry"/>
                </mxCell>
                <mxCell id="XFd1rmUD097lWMeRVB7E-6" value="CandidateID" style="shape=partialRectangle;connectable=0;fillColor=none;top=0;left=0;bottom=0;right=0;align=left;spacingLeft=6;fontStyle=5;overflow=hidden;" parent="XFd1rmUD097lWMeRVB7E-4" vertex="1">
                    <mxGeometry x="30" width="195" height="20" as="geometry"/>
                </mxCell>
                <mxCell id="XFd1rmUD097lWMeRVB7E-7" value="" style="shape=partialRectangle;collapsible=0;dropTarget=0;pointerEvents=0;fillColor=none;top=0;left=0;bottom=0;right=0;points=[[0,0.5],[1,0.5]];portConstraint=eastwest;" parent="XFd1rmUD097lWMeRVB7E-3" vertex="1">
                    <mxGeometry y="50" width="225" height="20" as="geometry"/>
                </mxCell>
                <mxCell id="XFd1rmUD097lWMeRVB7E-8" value="" style="shape=partialRectangle;connectable=0;fillColor=none;top=0;left=0;bottom=0;right=0;editable=1;overflow=hidden;" parent="XFd1rmUD097lWMeRVB7E-7" vertex="1">
                    <mxGeometry width="30" height="20" as="geometry"/>
                </mxCell>
                <mxCell id="XFd1rmUD097lWMeRVB7E-9" value="AccLetter : FileLocation" style="shape=partialRectangle;connectable=0;fillColor=none;top=0;left=0;bottom=0;right=0;align=left;spacingLeft=6;overflow=hidden;" parent="XFd1rmUD097lWMeRVB7E-7" vertex="1">
                    <mxGeometry x="30" width="195" height="20" as="geometry"/>
                </mxCell>
                <mxCell id="XFd1rmUD097lWMeRVB7E-10" value="" style="shape=partialRectangle;collapsible=0;dropTarget=0;pointerEvents=0;fillColor=none;top=0;left=0;bottom=0;right=0;points=[[0,0.5],[1,0.5]];portConstraint=eastwest;" parent="XFd1rmUD097lWMeRVB7E-3" vertex="1">
                    <mxGeometry y="70" width="225" height="30" as="geometry"/>
                </mxCell>
                <mxCell id="XFd1rmUD097lWMeRVB7E-11" value="" style="shape=partialRectangle;connectable=0;fillColor=none;top=0;left=0;bottom=0;right=0;editable=1;overflow=hidden;" parent="XFd1rmUD097lWMeRVB7E-10" vertex="1">
                    <mxGeometry width="30" height="30" as="geometry"/>
                </mxCell>
                <mxCell id="XFd1rmUD097lWMeRVB7E-12" value="SpeechProof : FileLocation(Audio)" style="shape=partialRectangle;connectable=0;fillColor=none;top=0;left=0;bottom=0;right=0;align=left;spacingLeft=6;overflow=hidden;" parent="XFd1rmUD097lWMeRVB7E-10" vertex="1">
                    <mxGeometry x="30" width="195" height="30" as="geometry"/>
                </mxCell>
                <mxCell id="2jpVa8-jFRswER65Fc-i-0" value="Passport Info" style="shape=table;startSize=40;container=1;collapsible=1;childLayout=tableLayout;fixedRows=1;rowLines=0;fontStyle=1;align=center;resizeLast=1;fontSize=12;" parent="z_rlmheR3kkfY81NdptR-1" vertex="1">
                    <mxGeometry x="460" y="520" width="190" height="180" as="geometry">
                        <mxRectangle x="460" y="520" width="110" height="40" as="alternateBounds"/>
                    </mxGeometry>
                </mxCell>
                <mxCell id="2jpVa8-jFRswER65Fc-i-1" value="" style="shape=partialRectangle;collapsible=0;dropTarget=0;pointerEvents=0;fillColor=none;top=0;left=0;bottom=1;right=0;points=[[0,0.5],[1,0.5]];portConstraint=eastwest;" parent="2jpVa8-jFRswER65Fc-i-0" vertex="1">
                    <mxGeometry y="40" width="190" height="30" as="geometry"/>
                </mxCell>
                <mxCell id="2jpVa8-jFRswER65Fc-i-2" value="PK,FK" style="shape=partialRectangle;connectable=0;fillColor=none;top=0;left=0;bottom=0;right=0;fontStyle=1;overflow=hidden;fontSize=8;" parent="2jpVa8-jFRswER65Fc-i-1" vertex="1">
                    <mxGeometry width="30" height="30" as="geometry"/>
                </mxCell>
                <mxCell id="2jpVa8-jFRswER65Fc-i-3" value="CandidateID" style="shape=partialRectangle;connectable=0;fillColor=none;top=0;left=0;bottom=0;right=0;align=left;spacingLeft=6;fontStyle=5;overflow=hidden;" parent="2jpVa8-jFRswER65Fc-i-1" vertex="1">
                    <mxGeometry x="30" width="160" height="30" as="geometry"/>
                </mxCell>
                <mxCell id="2jpVa8-jFRswER65Fc-i-4" value="" style="shape=partialRectangle;collapsible=0;dropTarget=0;pointerEvents=0;fillColor=none;top=0;left=0;bottom=0;right=0;points=[[0,0.5],[1,0.5]];portConstraint=eastwest;" parent="2jpVa8-jFRswER65Fc-i-0" vertex="1">
                    <mxGeometry y="70" width="190" height="20" as="geometry"/>
                </mxCell>
                <mxCell id="2jpVa8-jFRswER65Fc-i-5" value="" style="shape=partialRectangle;connectable=0;fillColor=none;top=0;left=0;bottom=0;right=0;editable=1;overflow=hidden;" parent="2jpVa8-jFRswER65Fc-i-4" vertex="1">
                    <mxGeometry width="30" height="20" as="geometry"/>
                </mxCell>
                <mxCell id="2jpVa8-jFRswER65Fc-i-6" value="PassportNo : String" style="shape=partialRectangle;connectable=0;fillColor=none;top=0;left=0;bottom=0;right=0;align=left;spacingLeft=6;overflow=hidden;" parent="2jpVa8-jFRswER65Fc-i-4" vertex="1">
                    <mxGeometry x="30" width="160" height="20" as="geometry"/>
                </mxCell>
                <mxCell id="2jpVa8-jFRswER65Fc-i-7" value="" style="shape=partialRectangle;collapsible=0;dropTarget=0;pointerEvents=0;fillColor=none;top=0;left=0;bottom=0;right=0;points=[[0,0.5],[1,0.5]];portConstraint=eastwest;" parent="2jpVa8-jFRswER65Fc-i-0" vertex="1">
                    <mxGeometry y="90" width="190" height="20" as="geometry"/>
                </mxCell>
                <mxCell id="2jpVa8-jFRswER65Fc-i-8" value="" style="shape=partialRectangle;connectable=0;fillColor=none;top=0;left=0;bottom=0;right=0;editable=1;overflow=hidden;" parent="2jpVa8-jFRswER65Fc-i-7" vertex="1">
                    <mxGeometry width="30" height="20" as="geometry"/>
                </mxCell>
                <mxCell id="2jpVa8-jFRswER65Fc-i-9" value="DOI : Date" style="shape=partialRectangle;connectable=0;fillColor=none;top=0;left=0;bottom=0;right=0;align=left;spacingLeft=6;overflow=hidden;" parent="2jpVa8-jFRswER65Fc-i-7" vertex="1">
                    <mxGeometry x="30" width="160" height="20" as="geometry"/>
                </mxCell>
                <mxCell id="2jpVa8-jFRswER65Fc-i-10" value="" style="shape=partialRectangle;collapsible=0;dropTarget=0;pointerEvents=0;fillColor=none;top=0;left=0;bottom=0;right=0;points=[[0,0.5],[1,0.5]];portConstraint=eastwest;" parent="2jpVa8-jFRswER65Fc-i-0" vertex="1">
                    <mxGeometry y="110" width="190" height="20" as="geometry"/>
                </mxCell>
                <mxCell id="2jpVa8-jFRswER65Fc-i-11" value="" style="shape=partialRectangle;connectable=0;fillColor=none;top=0;left=0;bottom=0;right=0;editable=1;overflow=hidden;" parent="2jpVa8-jFRswER65Fc-i-10" vertex="1">
                    <mxGeometry width="30" height="20" as="geometry"/>
                </mxCell>
                <mxCell id="2jpVa8-jFRswER65Fc-i-12" value="DOE : Date" style="shape=partialRectangle;connectable=0;fillColor=none;top=0;left=0;bottom=0;right=0;align=left;spacingLeft=6;overflow=hidden;" parent="2jpVa8-jFRswER65Fc-i-10" vertex="1">
                    <mxGeometry x="30" width="160" height="20" as="geometry"/>
                </mxCell>
                <mxCell id="4vMJxnMYtFbm6agv0QWq-0" value="" style="shape=partialRectangle;collapsible=0;dropTarget=0;pointerEvents=0;fillColor=none;top=0;left=0;bottom=0;right=0;points=[[0,0.5],[1,0.5]];portConstraint=eastwest;movable=0;resizable=0;rotatable=0;deletable=0;editable=0;connectable=0;" parent="2jpVa8-jFRswER65Fc-i-0" vertex="1">
                    <mxGeometry y="130" width="190" height="20" as="geometry"/>
                </mxCell>
                <mxCell id="4vMJxnMYtFbm6agv0QWq-1" value="" style="shape=partialRectangle;connectable=0;fillColor=none;top=0;left=0;bottom=0;right=0;editable=1;overflow=hidden;" parent="4vMJxnMYtFbm6agv0QWq-0" vertex="1">
                    <mxGeometry width="30" height="20" as="geometry"/>
                </mxCell>
                <mxCell id="4vMJxnMYtFbm6agv0QWq-2" value="PlaceOfIssue : String" style="shape=partialRectangle;connectable=0;fillColor=none;top=0;left=0;bottom=0;right=0;align=left;spacingLeft=6;overflow=hidden;" parent="4vMJxnMYtFbm6agv0QWq-0" vertex="1">
                    <mxGeometry x="30" width="160" height="20" as="geometry"/>
                </mxCell>
                <mxCell id="CaKwX3tqKfxdgevaNl7G-62" style="shape=partialRectangle;collapsible=0;dropTarget=0;pointerEvents=0;fillColor=none;top=0;left=0;bottom=0;right=0;points=[[0,0.5],[1,0.5]];portConstraint=eastwest;movable=0;resizable=0;rotatable=0;deletable=0;editable=0;connectable=0;" parent="2jpVa8-jFRswER65Fc-i-0" vertex="1">
                    <mxGeometry y="150" width="190" height="20" as="geometry"/>
                </mxCell>
                <mxCell id="CaKwX3tqKfxdgevaNl7G-63" style="shape=partialRectangle;connectable=0;fillColor=none;top=0;left=0;bottom=0;right=0;editable=1;overflow=hidden;" parent="CaKwX3tqKfxdgevaNl7G-62" vertex="1">
                    <mxGeometry width="30" height="20" as="geometry"/>
                </mxCell>
                <mxCell id="CaKwX3tqKfxdgevaNl7G-64" value="passport_copy: varchar()" style="shape=partialRectangle;connectable=0;fillColor=none;top=0;left=0;bottom=0;right=0;align=left;spacingLeft=6;overflow=hidden;" parent="CaKwX3tqKfxdgevaNl7G-62" vertex="1">
                    <mxGeometry x="30" width="160" height="20" as="geometry"/>
                </mxCell>
                <mxCell id="PYySrQwHKu96aM0ZfTiS-0" value="Recruitment Requirement Junction" style="shape=table;startSize=40;container=1;collapsible=1;childLayout=tableLayout;fixedRows=1;rowLines=0;fontStyle=1;align=center;resizeLast=1;" parent="z_rlmheR3kkfY81NdptR-1" vertex="1">
                    <mxGeometry x="1080" y="410" width="230" height="100" as="geometry">
                        <mxRectangle x="1080" y="410" width="230" height="30" as="alternateBounds"/>
                    </mxGeometry>
                </mxCell>
                <mxCell id="PYySrQwHKu96aM0ZfTiS-1" value="" style="shape=partialRectangle;collapsible=0;dropTarget=0;pointerEvents=0;fillColor=none;top=0;left=0;bottom=1;right=0;points=[[0,0.5],[1,0.5]];portConstraint=eastwest;" parent="PYySrQwHKu96aM0ZfTiS-0" vertex="1">
                    <mxGeometry y="40" width="230" height="20" as="geometry"/>
                </mxCell>
                <mxCell id="PYySrQwHKu96aM0ZfTiS-2" value="PK" style="shape=partialRectangle;connectable=0;fillColor=none;top=0;left=0;bottom=0;right=0;fontStyle=1;overflow=hidden;" parent="PYySrQwHKu96aM0ZfTiS-1" vertex="1">
                    <mxGeometry width="30" height="20" as="geometry"/>
                </mxCell>
                <mxCell id="PYySrQwHKu96aM0ZfTiS-3" value="RecruitmentID : Integer" style="shape=partialRectangle;connectable=0;fillColor=none;top=0;left=0;bottom=0;right=0;align=left;spacingLeft=6;fontStyle=5;overflow=hidden;" parent="PYySrQwHKu96aM0ZfTiS-1" vertex="1">
                    <mxGeometry x="30" width="200" height="20" as="geometry"/>
                </mxCell>
                <mxCell id="PYySrQwHKu96aM0ZfTiS-4" value="" style="shape=partialRectangle;collapsible=0;dropTarget=0;pointerEvents=0;fillColor=none;top=0;left=0;bottom=1;right=0;points=[[0,0.5],[1,0.5]];portConstraint=eastwest;" parent="PYySrQwHKu96aM0ZfTiS-0" vertex="1">
                    <mxGeometry y="60" width="230" height="20" as="geometry"/>
                </mxCell>
                <mxCell id="PYySrQwHKu96aM0ZfTiS-5" value="PK" style="shape=partialRectangle;connectable=0;fillColor=none;top=0;left=0;bottom=0;right=0;fontStyle=1;overflow=hidden;" parent="PYySrQwHKu96aM0ZfTiS-4" vertex="1">
                    <mxGeometry width="30" height="20" as="geometry"/>
                </mxCell>
                <mxCell id="PYySrQwHKu96aM0ZfTiS-6" value="SpecializationID: Integer" style="shape=partialRectangle;connectable=0;fillColor=none;top=0;left=0;bottom=0;right=0;align=left;spacingLeft=6;fontStyle=5;overflow=hidden;" parent="PYySrQwHKu96aM0ZfTiS-4" vertex="1">
                    <mxGeometry x="30" width="200" height="20" as="geometry"/>
                </mxCell>
                <mxCell id="PYySrQwHKu96aM0ZfTiS-7" value="" style="shape=partialRectangle;collapsible=0;dropTarget=0;pointerEvents=0;fillColor=none;top=0;left=0;bottom=0;right=0;points=[[0,0.5],[1,0.5]];portConstraint=eastwest;" parent="PYySrQwHKu96aM0ZfTiS-0" vertex="1">
                    <mxGeometry y="80" width="230" height="20" as="geometry"/>
                </mxCell>
                <mxCell id="PYySrQwHKu96aM0ZfTiS-8" value="" style="shape=partialRectangle;connectable=0;fillColor=none;top=0;left=0;bottom=0;right=0;editable=1;overflow=hidden;" parent="PYySrQwHKu96aM0ZfTiS-7" vertex="1">
                    <mxGeometry width="30" height="20" as="geometry"/>
                </mxCell>
                <mxCell id="PYySrQwHKu96aM0ZfTiS-9" value="Count : Integer" style="shape=partialRectangle;connectable=0;fillColor=none;top=0;left=0;bottom=0;right=0;align=left;spacingLeft=6;overflow=hidden;fontStyle=0" parent="PYySrQwHKu96aM0ZfTiS-7" vertex="1">
                    <mxGeometry x="30" width="200" height="20" as="geometry"/>
                </mxCell>
                <mxCell id="ZNbfZpURQgJpnQqo9UI7-0" value="Sponsor Info" style="shape=table;startSize=30;container=1;collapsible=1;childLayout=tableLayout;fixedRows=1;rowLines=0;fontStyle=1;align=center;resizeLast=1;" parent="z_rlmheR3kkfY81NdptR-1" vertex="1">
                    <mxGeometry x="880" y="-90" width="180" height="190" as="geometry">
                        <mxRectangle x="880" y="-90" width="110" height="30" as="alternateBounds"/>
                    </mxGeometry>
                </mxCell>
                <mxCell id="ZNbfZpURQgJpnQqo9UI7-1" value="" style="shape=partialRectangle;collapsible=0;dropTarget=0;pointerEvents=0;fillColor=none;top=0;left=0;bottom=1;right=0;points=[[0,0.5],[1,0.5]];portConstraint=eastwest;" parent="ZNbfZpURQgJpnQqo9UI7-0" vertex="1">
                    <mxGeometry y="30" width="180" height="30" as="geometry"/>
                </mxCell>
                <mxCell id="ZNbfZpURQgJpnQqo9UI7-2" value="PK" style="shape=partialRectangle;connectable=0;fillColor=none;top=0;left=0;bottom=0;right=0;fontStyle=1;overflow=hidden;" parent="ZNbfZpURQgJpnQqo9UI7-1" vertex="1">
                    <mxGeometry width="30" height="30" as="geometry"/>
                </mxCell>
                <mxCell id="ZNbfZpURQgJpnQqo9UI7-3" value="SponsorID : Integer" style="shape=partialRectangle;connectable=0;fillColor=none;top=0;left=0;bottom=0;right=0;align=left;spacingLeft=6;fontStyle=5;overflow=hidden;" parent="ZNbfZpURQgJpnQqo9UI7-1" vertex="1">
                    <mxGeometry x="30" width="150" height="30" as="geometry"/>
                </mxCell>
                <mxCell id="ZNbfZpURQgJpnQqo9UI7-4" value="" style="shape=partialRectangle;collapsible=0;dropTarget=0;pointerEvents=0;fillColor=none;top=0;left=0;bottom=0;right=0;points=[[0,0.5],[1,0.5]];portConstraint=eastwest;" parent="ZNbfZpURQgJpnQqo9UI7-0" vertex="1">
                    <mxGeometry y="60" width="180" height="20" as="geometry"/>
                </mxCell>
                <mxCell id="ZNbfZpURQgJpnQqo9UI7-5" value="" style="shape=partialRectangle;connectable=0;fillColor=none;top=0;left=0;bottom=0;right=0;editable=1;overflow=hidden;" parent="ZNbfZpURQgJpnQqo9UI7-4" vertex="1">
                    <mxGeometry width="30" height="20" as="geometry"/>
                </mxCell>
                <mxCell id="ZNbfZpURQgJpnQqo9UI7-6" value="Name : String" style="shape=partialRectangle;connectable=0;fillColor=none;top=0;left=0;bottom=0;right=0;align=left;spacingLeft=6;overflow=hidden;" parent="ZNbfZpURQgJpnQqo9UI7-4" vertex="1">
                    <mxGeometry x="30" width="150" height="20" as="geometry"/>
                </mxCell>
                <mxCell id="ZNbfZpURQgJpnQqo9UI7-7" value="" style="shape=partialRectangle;collapsible=0;dropTarget=0;pointerEvents=0;fillColor=none;top=0;left=0;bottom=0;right=0;points=[[0,0.5],[1,0.5]];portConstraint=eastwest;" parent="ZNbfZpURQgJpnQqo9UI7-0" vertex="1">
                    <mxGeometry y="80" width="180" height="20" as="geometry"/>
                </mxCell>
                <mxCell id="ZNbfZpURQgJpnQqo9UI7-8" value="" style="shape=partialRectangle;connectable=0;fillColor=none;top=0;left=0;bottom=0;right=0;editable=1;overflow=hidden;" parent="ZNbfZpURQgJpnQqo9UI7-7" vertex="1">
                    <mxGeometry width="30" height="20" as="geometry"/>
                </mxCell>
                <mxCell id="ZNbfZpURQgJpnQqo9UI7-9" value="ContactNo : Integer" style="shape=partialRectangle;connectable=0;fillColor=none;top=0;left=0;bottom=0;right=0;align=left;spacingLeft=6;overflow=hidden;" parent="ZNbfZpURQgJpnQqo9UI7-7" vertex="1">
                    <mxGeometry x="30" width="150" height="20" as="geometry"/>
                </mxCell>
                <mxCell id="ZNbfZpURQgJpnQqo9UI7-10" value="" style="shape=partialRectangle;collapsible=0;dropTarget=0;pointerEvents=0;fillColor=none;top=0;left=0;bottom=0;right=0;points=[[0,0.5],[1,0.5]];portConstraint=eastwest;" parent="ZNbfZpURQgJpnQqo9UI7-0" vertex="1">
                    <mxGeometry y="100" width="180" height="30" as="geometry"/>
                </mxCell>
                <mxCell id="ZNbfZpURQgJpnQqo9UI7-11" value="" style="shape=partialRectangle;connectable=0;fillColor=none;top=0;left=0;bottom=0;right=0;editable=1;overflow=hidden;" parent="ZNbfZpURQgJpnQqo9UI7-10" vertex="1">
                    <mxGeometry width="30" height="30" as="geometry"/>
                </mxCell>
                <mxCell id="ZNbfZpURQgJpnQqo9UI7-12" value="EmailID : String" style="shape=partialRectangle;connectable=0;fillColor=none;top=0;left=0;bottom=0;right=0;align=left;spacingLeft=6;overflow=hidden;" parent="ZNbfZpURQgJpnQqo9UI7-10" vertex="1">
                    <mxGeometry x="30" width="150" height="30" as="geometry"/>
                </mxCell>
                <mxCell id="CaKwX3tqKfxdgevaNl7G-65" style="shape=partialRectangle;collapsible=0;dropTarget=0;pointerEvents=0;fillColor=none;top=0;left=0;bottom=0;right=0;points=[[0,0.5],[1,0.5]];portConstraint=eastwest;" parent="ZNbfZpURQgJpnQqo9UI7-0" vertex="1">
                    <mxGeometry y="130" width="180" height="20" as="geometry"/>
                </mxCell>
                <mxCell id="CaKwX3tqKfxdgevaNl7G-66" style="shape=partialRectangle;connectable=0;fillColor=none;top=0;left=0;bottom=0;right=0;editable=1;overflow=hidden;" parent="CaKwX3tqKfxdgevaNl7G-65" vertex="1">
                    <mxGeometry width="30" height="20" as="geometry"/>
                </mxCell>
                <mxCell id="CaKwX3tqKfxdgevaNl7G-67" value="State: varchar(5) NOT NULL" style="shape=partialRectangle;connectable=0;fillColor=none;top=0;left=0;bottom=0;right=0;align=left;spacingLeft=6;overflow=hidden;" parent="CaKwX3tqKfxdgevaNl7G-65" vertex="1">
                    <mxGeometry x="30" width="150" height="20" as="geometry"/>
                </mxCell>
                <mxCell id="oLz5wDiz8IojeFg1BwrK-0" value="" style="shape=partialRectangle;collapsible=0;dropTarget=0;pointerEvents=0;fillColor=none;top=0;left=0;bottom=0;right=0;points=[[0,0.5],[1,0.5]];portConstraint=eastwest;" parent="ZNbfZpURQgJpnQqo9UI7-0" vertex="1">
                    <mxGeometry y="150" width="180" height="20" as="geometry"/>
                </mxCell>
                <mxCell id="oLz5wDiz8IojeFg1BwrK-1" value="" style="shape=partialRectangle;connectable=0;fillColor=none;top=0;left=0;bottom=0;right=0;editable=1;overflow=hidden;" parent="oLz5wDiz8IojeFg1BwrK-0" vertex="1">
                    <mxGeometry width="30" height="20" as="geometry"/>
                </mxCell>
                <mxCell id="oLz5wDiz8IojeFg1BwrK-2" value="Country : String" style="shape=partialRectangle;connectable=0;fillColor=none;top=0;left=0;bottom=0;right=0;align=left;spacingLeft=6;overflow=hidden;" parent="oLz5wDiz8IojeFg1BwrK-0" vertex="1">
                    <mxGeometry x="30" width="150" height="20" as="geometry"/>
                </mxCell>
                <mxCell id="fs8igWWBf_ywj3ARCzpt-0" value="" style="shape=partialRectangle;collapsible=0;dropTarget=0;pointerEvents=0;fillColor=none;top=0;left=0;bottom=0;right=0;points=[[0,0.5],[1,0.5]];portConstraint=eastwest;" parent="ZNbfZpURQgJpnQqo9UI7-0" vertex="1">
                    <mxGeometry y="170" width="180" height="20" as="geometry"/>
                </mxCell>
                <mxCell id="fs8igWWBf_ywj3ARCzpt-1" value="" style="shape=partialRectangle;connectable=0;fillColor=none;top=0;left=0;bottom=0;right=0;editable=1;overflow=hidden;" parent="fs8igWWBf_ywj3ARCzpt-0" vertex="1">
                    <mxGeometry width="30" height="20" as="geometry"/>
                </mxCell>
                <mxCell id="fs8igWWBf_ywj3ARCzpt-2" value="Address : String" style="shape=partialRectangle;connectable=0;fillColor=none;top=0;left=0;bottom=0;right=0;align=left;spacingLeft=6;overflow=hidden;" parent="fs8igWWBf_ywj3ARCzpt-0" vertex="1">
                    <mxGeometry x="30" width="150" height="20" as="geometry"/>
                </mxCell>
                <mxCell id="OGR9EY1ze3uBQYHD45Le-19" value="Candidate Info" style="shape=table;startSize=30;container=1;collapsible=1;childLayout=tableLayout;fixedRows=1;rowLines=0;fontStyle=1;align=center;resizeLast=1;" parent="z_rlmheR3kkfY81NdptR-1" vertex="1">
                    <mxGeometry x="20" y="102.5" width="210" height="280" as="geometry">
                        <mxRectangle x="20" y="102.5" width="120" height="30" as="alternateBounds"/>
                    </mxGeometry>
                </mxCell>
                <mxCell id="OGR9EY1ze3uBQYHD45Le-20" value="" style="shape=partialRectangle;collapsible=0;dropTarget=0;pointerEvents=0;fillColor=none;top=0;left=0;bottom=1;right=0;points=[[0,0.5],[1,0.5]];portConstraint=eastwest;" parent="OGR9EY1ze3uBQYHD45Le-19" vertex="1">
                    <mxGeometry y="30" width="210" height="30" as="geometry"/>
                </mxCell>
                <mxCell id="OGR9EY1ze3uBQYHD45Le-21" value="PK" style="shape=partialRectangle;connectable=0;fillColor=none;top=0;left=0;bottom=0;right=0;fontStyle=1;overflow=hidden;" parent="OGR9EY1ze3uBQYHD45Le-20" vertex="1">
                    <mxGeometry width="30" height="30" as="geometry"/>
                </mxCell>
                <mxCell id="OGR9EY1ze3uBQYHD45Le-22" value="CandidateID : Integer" style="shape=partialRectangle;connectable=0;fillColor=none;top=0;left=0;bottom=0;right=0;align=left;spacingLeft=6;fontStyle=5;overflow=hidden;" parent="OGR9EY1ze3uBQYHD45Le-20" vertex="1">
                    <mxGeometry x="30" width="180" height="30" as="geometry"/>
                </mxCell>
                <mxCell id="OGR9EY1ze3uBQYHD45Le-23" value="" style="shape=partialRectangle;collapsible=0;dropTarget=0;pointerEvents=0;fillColor=none;top=0;left=0;bottom=0;right=0;points=[[0,0.5],[1,0.5]];portConstraint=eastwest;" parent="OGR9EY1ze3uBQYHD45Le-19" vertex="1">
                    <mxGeometry y="60" width="210" height="20" as="geometry"/>
                </mxCell>
                <mxCell id="OGR9EY1ze3uBQYHD45Le-24" value="" style="shape=partialRectangle;connectable=0;fillColor=none;top=0;left=0;bottom=0;right=0;editable=1;overflow=hidden;" parent="OGR9EY1ze3uBQYHD45Le-23" vertex="1">
                    <mxGeometry width="30" height="20" as="geometry"/>
                </mxCell>
                <mxCell id="OGR9EY1ze3uBQYHD45Le-25" value="FirstName : String" style="shape=partialRectangle;connectable=0;fillColor=none;top=0;left=0;bottom=0;right=0;align=left;spacingLeft=6;overflow=hidden;" parent="OGR9EY1ze3uBQYHD45Le-23" vertex="1">
                    <mxGeometry x="30" width="180" height="20" as="geometry"/>
                </mxCell>
                <mxCell id="OGR9EY1ze3uBQYHD45Le-26" value="" style="shape=partialRectangle;collapsible=0;dropTarget=0;pointerEvents=0;fillColor=none;top=0;left=0;bottom=0;right=0;points=[[0,0.5],[1,0.5]];portConstraint=eastwest;" parent="OGR9EY1ze3uBQYHD45Le-19" vertex="1">
                    <mxGeometry y="80" width="210" height="20" as="geometry"/>
                </mxCell>
                <mxCell id="OGR9EY1ze3uBQYHD45Le-27" value="" style="shape=partialRectangle;connectable=0;fillColor=none;top=0;left=0;bottom=0;right=0;editable=1;overflow=hidden;" parent="OGR9EY1ze3uBQYHD45Le-26" vertex="1">
                    <mxGeometry width="30" height="20" as="geometry"/>
                </mxCell>
                <mxCell id="OGR9EY1ze3uBQYHD45Le-28" value="LastName : String" style="shape=partialRectangle;connectable=0;fillColor=none;top=0;left=0;bottom=0;right=0;align=left;spacingLeft=6;overflow=hidden;" parent="OGR9EY1ze3uBQYHD45Le-26" vertex="1">
                    <mxGeometry x="30" width="180" height="20" as="geometry"/>
                </mxCell>
                <mxCell id="OGR9EY1ze3uBQYHD45Le-48" value="" style="shape=partialRectangle;collapsible=0;dropTarget=0;pointerEvents=0;fillColor=none;top=0;left=0;bottom=0;right=0;points=[[0,0.5],[1,0.5]];portConstraint=eastwest;" parent="OGR9EY1ze3uBQYHD45Le-19" vertex="1">
                    <mxGeometry y="100" width="210" height="20" as="geometry"/>
                </mxCell>
                <mxCell id="OGR9EY1ze3uBQYHD45Le-49" value="" style="shape=partialRectangle;connectable=0;fillColor=none;top=0;left=0;bottom=0;right=0;editable=1;overflow=hidden;" parent="OGR9EY1ze3uBQYHD45Le-48" vertex="1">
                    <mxGeometry width="30" height="20" as="geometry"/>
                </mxCell>
                <mxCell id="OGR9EY1ze3uBQYHD45Le-50" value="ContactNo : Integer" style="shape=partialRectangle;connectable=0;fillColor=none;top=0;left=0;bottom=0;right=0;align=left;spacingLeft=6;overflow=hidden;" parent="OGR9EY1ze3uBQYHD45Le-48" vertex="1">
                    <mxGeometry x="30" width="180" height="20" as="geometry"/>
                </mxCell>
                <mxCell id="qcg3cBotRkZT5oNRFvy3-0" value="" style="shape=partialRectangle;collapsible=0;dropTarget=0;pointerEvents=0;fillColor=none;top=0;left=0;bottom=0;right=0;points=[[0,0.5],[1,0.5]];portConstraint=eastwest;" parent="OGR9EY1ze3uBQYHD45Le-19" vertex="1">
                    <mxGeometry y="120" width="210" height="20" as="geometry"/>
                </mxCell>
                <mxCell id="qcg3cBotRkZT5oNRFvy3-1" value="" style="shape=partialRectangle;connectable=0;fillColor=none;top=0;left=0;bottom=0;right=0;editable=1;overflow=hidden;" parent="qcg3cBotRkZT5oNRFvy3-0" vertex="1">
                    <mxGeometry width="30" height="20" as="geometry"/>
                </mxCell>
                <mxCell id="qcg3cBotRkZT5oNRFvy3-2" value="Address : String" style="shape=partialRectangle;connectable=0;fillColor=none;top=0;left=0;bottom=0;right=0;align=left;spacingLeft=6;overflow=hidden;" parent="qcg3cBotRkZT5oNRFvy3-0" vertex="1">
                    <mxGeometry x="30" width="180" height="20" as="geometry"/>
                </mxCell>
                <mxCell id="OGR9EY1ze3uBQYHD45Le-51" value="" style="shape=partialRectangle;collapsible=0;dropTarget=0;pointerEvents=0;fillColor=none;top=0;left=0;bottom=0;right=0;points=[[0,0.5],[1,0.5]];portConstraint=eastwest;" parent="OGR9EY1ze3uBQYHD45Le-19" vertex="1">
                    <mxGeometry y="140" width="210" height="20" as="geometry"/>
                </mxCell>
                <mxCell id="OGR9EY1ze3uBQYHD45Le-52" value="" style="shape=partialRectangle;connectable=0;fillColor=none;top=0;left=0;bottom=0;right=0;editable=1;overflow=hidden;" parent="OGR9EY1ze3uBQYHD45Le-51" vertex="1">
                    <mxGeometry width="30" height="20" as="geometry"/>
                </mxCell>
                <mxCell id="OGR9EY1ze3uBQYHD45Le-53" value="Gender : String" style="shape=partialRectangle;connectable=0;fillColor=none;top=0;left=0;bottom=0;right=0;align=left;spacingLeft=6;overflow=hidden;" parent="OGR9EY1ze3uBQYHD45Le-51" vertex="1">
                    <mxGeometry x="30" width="180" height="20" as="geometry"/>
                </mxCell>
                <mxCell id="AIpo-1skq73D4Y5ld0GA-0" value="" style="shape=partialRectangle;collapsible=0;dropTarget=0;pointerEvents=0;fillColor=none;top=0;left=0;bottom=0;right=0;points=[[0,0.5],[1,0.5]];portConstraint=eastwest;" parent="OGR9EY1ze3uBQYHD45Le-19" vertex="1">
                    <mxGeometry y="160" width="210" height="20" as="geometry"/>
                </mxCell>
                <mxCell id="AIpo-1skq73D4Y5ld0GA-1" value="" style="shape=partialRectangle;connectable=0;fillColor=none;top=0;left=0;bottom=0;right=0;editable=1;overflow=hidden;" parent="AIpo-1skq73D4Y5ld0GA-0" vertex="1">
                    <mxGeometry width="30" height="20" as="geometry"/>
                </mxCell>
                <mxCell id="AIpo-1skq73D4Y5ld0GA-2" value="DOB : Date" style="shape=partialRectangle;connectable=0;fillColor=none;top=0;left=0;bottom=0;right=0;align=left;spacingLeft=6;overflow=hidden;" parent="AIpo-1skq73D4Y5ld0GA-0" vertex="1">
                    <mxGeometry x="30" width="180" height="20" as="geometry"/>
                </mxCell>
                <mxCell id="y8cb8UkhQbV5cXnKdwQa-26" value="" style="shape=partialRectangle;collapsible=0;dropTarget=0;pointerEvents=0;fillColor=none;top=0;left=0;bottom=0;right=0;points=[[0,0.5],[1,0.5]];portConstraint=eastwest;" parent="OGR9EY1ze3uBQYHD45Le-19" vertex="1">
                    <mxGeometry y="180" width="210" height="20" as="geometry"/>
                </mxCell>
                <mxCell id="y8cb8UkhQbV5cXnKdwQa-27" value="" style="shape=partialRectangle;connectable=0;fillColor=none;top=0;left=0;bottom=0;right=0;editable=1;overflow=hidden;" parent="y8cb8UkhQbV5cXnKdwQa-26" vertex="1">
                    <mxGeometry width="30" height="20" as="geometry"/>
                </mxCell>
                <mxCell id="y8cb8UkhQbV5cXnKdwQa-28" value="EmailID :  String " style="shape=partialRectangle;connectable=0;fillColor=none;top=0;left=0;bottom=0;right=0;align=left;spacingLeft=6;overflow=hidden;" parent="y8cb8UkhQbV5cXnKdwQa-26" vertex="1">
                    <mxGeometry x="30" width="180" height="20" as="geometry"/>
                </mxCell>
                <mxCell id="Z2qCBN7IccCIB3Ruv6ms-22" value="" style="shape=partialRectangle;collapsible=0;dropTarget=0;pointerEvents=0;fillColor=none;top=0;left=0;bottom=0;right=0;points=[[0,0.5],[1,0.5]];portConstraint=eastwest;" parent="OGR9EY1ze3uBQYHD45Le-19" vertex="1">
                    <mxGeometry y="200" width="210" height="20" as="geometry"/>
                </mxCell>
                <mxCell id="Z2qCBN7IccCIB3Ruv6ms-23" value="" style="shape=partialRectangle;connectable=0;fillColor=none;top=0;left=0;bottom=0;right=0;editable=1;overflow=hidden;" parent="Z2qCBN7IccCIB3Ruv6ms-22" vertex="1">
                    <mxGeometry width="30" height="20" as="geometry"/>
                </mxCell>
                <mxCell id="Z2qCBN7IccCIB3Ruv6ms-24" value="BioData : FileLocation" style="shape=partialRectangle;connectable=0;fillColor=none;top=0;left=0;bottom=0;right=0;align=left;spacingLeft=6;overflow=hidden;" parent="Z2qCBN7IccCIB3Ruv6ms-22" vertex="1">
                    <mxGeometry x="30" width="180" height="20" as="geometry"/>
                </mxCell>
                <mxCell id="PYySrQwHKu96aM0ZfTiS-73" value="" style="shape=partialRectangle;collapsible=0;dropTarget=0;pointerEvents=0;fillColor=none;top=0;left=0;bottom=0;right=0;points=[[0,0.5],[1,0.5]];portConstraint=eastwest;" parent="OGR9EY1ze3uBQYHD45Le-19" vertex="1">
                    <mxGeometry y="220" width="210" height="20" as="geometry"/>
                </mxCell>
                <mxCell id="PYySrQwHKu96aM0ZfTiS-74" value="" style="shape=partialRectangle;connectable=0;fillColor=none;top=0;left=0;bottom=0;right=0;editable=1;overflow=hidden;" parent="PYySrQwHKu96aM0ZfTiS-73" vertex="1">
                    <mxGeometry width="30" height="20" as="geometry"/>
                </mxCell>
                <mxCell id="PYySrQwHKu96aM0ZfTiS-75" value="Origin : String" style="shape=partialRectangle;connectable=0;fillColor=none;top=0;left=0;bottom=0;right=0;align=left;spacingLeft=6;overflow=hidden;" parent="PYySrQwHKu96aM0ZfTiS-73" vertex="1">
                    <mxGeometry x="30" width="180" height="20" as="geometry"/>
                </mxCell>
                <mxCell id="PYySrQwHKu96aM0ZfTiS-10" value="" style="shape=partialRectangle;collapsible=0;dropTarget=0;pointerEvents=0;fillColor=none;top=0;left=0;bottom=0;right=0;points=[[0,0.5],[1,0.5]];portConstraint=eastwest;" parent="OGR9EY1ze3uBQYHD45Le-19" vertex="1">
                    <mxGeometry y="240" width="210" height="20" as="geometry"/>
                </mxCell>
                <mxCell id="PYySrQwHKu96aM0ZfTiS-11" value="" style="shape=partialRectangle;connectable=0;fillColor=none;top=0;left=0;bottom=0;right=0;editable=1;overflow=hidden;" parent="PYySrQwHKu96aM0ZfTiS-10" vertex="1">
                    <mxGeometry width="30" height="20" as="geometry"/>
                </mxCell>
                <mxCell id="PYySrQwHKu96aM0ZfTiS-12" value="Status : String" style="shape=partialRectangle;connectable=0;fillColor=none;top=0;left=0;bottom=0;right=0;align=left;spacingLeft=6;overflow=hidden;" parent="PYySrQwHKu96aM0ZfTiS-10" vertex="1">
                    <mxGeometry x="30" width="180" height="20" as="geometry"/>
                </mxCell>
                <mxCell id="AjSMn2qY77L6pTCkPBIO-3" value="" style="shape=partialRectangle;collapsible=0;dropTarget=0;pointerEvents=0;fillColor=none;top=0;left=0;bottom=0;right=0;points=[[0,0.5],[1,0.5]];portConstraint=eastwest;" parent="OGR9EY1ze3uBQYHD45Le-19" vertex="1">
                    <mxGeometry y="260" width="210" height="20" as="geometry"/>
                </mxCell>
                <mxCell id="AjSMn2qY77L6pTCkPBIO-4" value="" style="shape=partialRectangle;connectable=0;fillColor=none;top=0;left=0;bottom=0;right=0;editable=1;overflow=hidden;" parent="AjSMn2qY77L6pTCkPBIO-3" vertex="1">
                    <mxGeometry width="30" height="20" as="geometry"/>
                </mxCell>
                <mxCell id="AjSMn2qY77L6pTCkPBIO-5" value="Date of Entry: Date" style="shape=partialRectangle;connectable=0;fillColor=none;top=0;left=0;bottom=0;right=0;align=left;spacingLeft=6;overflow=hidden;" parent="AjSMn2qY77L6pTCkPBIO-3" vertex="1">
                    <mxGeometry x="30" width="180" height="20" as="geometry"/>
                </mxCell>
                <mxCell id="zLNETc5M1Xkdi722oHCQ-0" value="Recruitment" style="shape=table;startSize=30;container=1;collapsible=1;childLayout=tableLayout;fixedRows=1;rowLines=0;fontStyle=1;align=center;resizeLast=1;" parent="z_rlmheR3kkfY81NdptR-1" vertex="1">
                    <mxGeometry x="1140" y="120" width="220" height="125" as="geometry">
                        <mxRectangle x="1140" y="120" width="100" height="30" as="alternateBounds"/>
                    </mxGeometry>
                </mxCell>
                <mxCell id="zLNETc5M1Xkdi722oHCQ-1" value="" style="shape=partialRectangle;collapsible=0;dropTarget=0;pointerEvents=0;fillColor=none;top=0;left=0;bottom=1;right=0;points=[[0,0.5],[1,0.5]];portConstraint=eastwest;" parent="zLNETc5M1Xkdi722oHCQ-0" vertex="1">
                    <mxGeometry y="30" width="220" height="30" as="geometry"/>
                </mxCell>
                <mxCell id="zLNETc5M1Xkdi722oHCQ-2" value="PK" style="shape=partialRectangle;connectable=0;fillColor=none;top=0;left=0;bottom=0;right=0;fontStyle=1;overflow=hidden;fontSize=12;" parent="zLNETc5M1Xkdi722oHCQ-1" vertex="1">
                    <mxGeometry width="30" height="30" as="geometry"/>
                </mxCell>
                <mxCell id="zLNETc5M1Xkdi722oHCQ-3" value="RecruitmentID : Integer" style="shape=partialRectangle;connectable=0;fillColor=none;top=0;left=0;bottom=0;right=0;align=left;spacingLeft=6;fontStyle=5;overflow=hidden;" parent="zLNETc5M1Xkdi722oHCQ-1" vertex="1">
                    <mxGeometry x="30" width="190" height="30" as="geometry"/>
                </mxCell>
                <mxCell id="zLNETc5M1Xkdi722oHCQ-7" value="" style="shape=partialRectangle;collapsible=0;dropTarget=0;pointerEvents=0;fillColor=none;top=0;left=0;bottom=0;right=0;points=[[0,0.5],[1,0.5]];portConstraint=eastwest;" parent="zLNETc5M1Xkdi722oHCQ-0" vertex="1">
                    <mxGeometry y="60" width="220" height="20" as="geometry"/>
                </mxCell>
                <mxCell id="zLNETc5M1Xkdi722oHCQ-8" value="FK" style="shape=partialRectangle;connectable=0;fillColor=none;top=0;left=0;bottom=0;right=0;editable=1;overflow=hidden;" parent="zLNETc5M1Xkdi722oHCQ-7" vertex="1">
                    <mxGeometry width="30" height="20" as="geometry"/>
                </mxCell>
                <mxCell id="zLNETc5M1Xkdi722oHCQ-9" value="SponsorID : Integer" style="shape=partialRectangle;connectable=0;fillColor=none;top=0;left=0;bottom=0;right=0;align=left;spacingLeft=6;overflow=hidden;" parent="zLNETc5M1Xkdi722oHCQ-7" vertex="1">
                    <mxGeometry x="30" width="190" height="20" as="geometry"/>
                </mxCell>
                <mxCell id="zLNETc5M1Xkdi722oHCQ-13" value="" style="shape=partialRectangle;collapsible=0;dropTarget=0;pointerEvents=0;fillColor=none;top=0;left=0;bottom=0;right=0;points=[[0,0.5],[1,0.5]];portConstraint=eastwest;" parent="zLNETc5M1Xkdi722oHCQ-0" vertex="1">
                    <mxGeometry y="80" width="220" height="25" as="geometry"/>
                </mxCell>
                <mxCell id="zLNETc5M1Xkdi722oHCQ-14" value="" style="shape=partialRectangle;connectable=0;fillColor=none;top=0;left=0;bottom=0;right=0;editable=1;overflow=hidden;" parent="zLNETc5M1Xkdi722oHCQ-13" vertex="1">
                    <mxGeometry width="30" height="25" as="geometry"/>
                </mxCell>
                <mxCell id="zLNETc5M1Xkdi722oHCQ-15" value="TotalCategories : Integer" style="shape=partialRectangle;connectable=0;fillColor=none;top=0;left=0;bottom=0;right=0;align=left;spacingLeft=6;overflow=hidden;" parent="zLNETc5M1Xkdi722oHCQ-13" vertex="1">
                    <mxGeometry x="30" width="190" height="25" as="geometry"/>
                </mxCell>
                <mxCell id="zLNETc5M1Xkdi722oHCQ-28" value="" style="shape=partialRectangle;collapsible=0;dropTarget=0;pointerEvents=0;fillColor=none;top=0;left=0;bottom=0;right=0;points=[[0,0.5],[1,0.5]];portConstraint=eastwest;" parent="zLNETc5M1Xkdi722oHCQ-0" vertex="1">
                    <mxGeometry y="105" width="220" height="20" as="geometry"/>
                </mxCell>
                <mxCell id="zLNETc5M1Xkdi722oHCQ-29" value="" style="shape=partialRectangle;connectable=0;fillColor=none;top=0;left=0;bottom=0;right=0;editable=1;overflow=hidden;" parent="zLNETc5M1Xkdi722oHCQ-28" vertex="1">
                    <mxGeometry width="30" height="20" as="geometry"/>
                </mxCell>
                <mxCell id="zLNETc5M1Xkdi722oHCQ-30" value="Date : Date" style="shape=partialRectangle;connectable=0;fillColor=none;top=0;left=0;bottom=0;right=0;align=left;spacingLeft=6;overflow=hidden;" parent="zLNETc5M1Xkdi722oHCQ-28" vertex="1">
                    <mxGeometry x="30" width="190" height="20" as="geometry"/>
                </mxCell>
            </root>
        </mxGraphModel>
    </diagram>
</mxfile>